<svg width="355" height="93" viewBox="0 0 355 93" fill="none" xmlns="http://www.w3.org/2000/svg">
<path d="M0 19.3777V73.2482C0 87.3715 14.796 96.4732 27.1867 89.972L77.5851 63.5412C92.1568 55.8966 91.9213 34.7284 77.1758 27.4201L26.8111 2.4633C14.4372 -3.66802 0 5.4449 0 19.3777Z" fill="#F6F6F2"/>
<g clip-path="url(#clip0_1602_22466)">
<path d="M21.1752 80.9077C27.1066 80.9077 31.9149 76.1021 31.9149 70.1741C31.9149 64.246 27.1066 59.4404 21.1752 59.4404C15.2439 59.4404 10.4355 64.246 10.4355 70.1741C10.4355 76.1021 15.2439 80.9077 21.1752 80.9077Z" fill="#E06ABF"/>
<path d="M21.1752 80.1672C27.1066 80.1672 31.9149 75.3616 31.9149 69.4336C31.9149 63.5056 27.1066 58.7 21.1752 58.7C15.2439 58.7 10.4355 63.5056 10.4355 69.4336C10.4355 75.3616 15.2439 80.1672 21.1752 80.1672Z" fill="#DF69BE"/>
<path d="M21.1752 79.4262C27.1066 79.4262 31.9149 74.6206 31.9149 68.6926C31.9149 62.7646 27.1066 57.959 21.1752 57.959C15.2439 57.959 10.4355 62.7646 10.4355 68.6926C10.4355 74.6206 15.2439 79.4262 21.1752 79.4262Z" fill="#DE68BD"/>
<path d="M21.1752 78.6867C27.1066 78.6867 31.9149 73.8811 31.9149 67.9531C31.9149 62.0251 27.1066 57.2195 21.1752 57.2195C15.2439 57.2195 10.4355 62.0251 10.4355 67.9531C10.4355 73.8811 15.2439 78.6867 21.1752 78.6867Z" fill="#DD67BC"/>
<path d="M21.1752 77.9153C27.1066 77.9153 31.9149 73.1096 31.9149 67.1816C31.9149 61.2536 27.1066 56.448 21.1752 56.448C15.2439 56.448 10.4355 61.2536 10.4355 67.1816C10.4355 73.1096 15.2439 77.9153 21.1752 77.9153Z" fill="#DC66BB"/>
<path d="M21.1752 77.1758C27.1066 77.1758 31.9149 72.3701 31.9149 66.4421C31.9149 60.5141 27.1066 55.7085 21.1752 55.7085C15.2439 55.7085 10.4355 60.5141 10.4355 66.4421C10.4355 72.3701 15.2439 77.1758 21.1752 77.1758Z" fill="#DB65BA"/>
<path d="M21.1752 76.4348C27.1066 76.4348 31.9149 71.6292 31.9149 65.7012C31.9149 59.7731 27.1066 54.9675 21.1752 54.9675C15.2439 54.9675 10.4355 59.7731 10.4355 65.7012C10.4355 71.6292 15.2439 76.4348 21.1752 76.4348Z" fill="#DA64B9"/>
<path d="M21.1752 75.6943C27.1066 75.6943 31.9149 70.8887 31.9149 64.9607C31.9149 59.0327 27.1066 54.2271 21.1752 54.2271C15.2439 54.2271 10.4355 59.0327 10.4355 64.9607C10.4355 70.8887 15.2439 75.6943 21.1752 75.6943Z" fill="#D963B8"/>
<path d="M21.1752 74.9548C27.1066 74.9548 31.9149 70.1492 31.9149 64.2212C31.9149 58.2932 27.1066 53.4875 21.1752 53.4875C15.2439 53.4875 10.4355 58.2932 10.4355 64.2212C10.4355 70.1492 15.2439 74.9548 21.1752 74.9548Z" fill="#D862B7"/>
<path d="M21.1752 74.1833C27.1066 74.1833 31.9149 69.3777 31.9149 63.4497C31.9149 57.5217 27.1066 52.7161 21.1752 52.7161C15.2439 52.7161 10.4355 57.5217 10.4355 63.4497C10.4355 69.3777 15.2439 74.1833 21.1752 74.1833Z" fill="#D761B6"/>
<path d="M21.1752 73.4432C27.1066 73.4432 31.9149 68.6376 31.9149 62.7096C31.9149 56.7816 27.1066 51.976 21.1752 51.976C15.2439 51.976 10.4355 56.7816 10.4355 62.7096C10.4355 68.6376 15.2439 73.4432 21.1752 73.4432Z" fill="#D660B5"/>
<path d="M21.1752 72.7033C27.1066 72.7033 31.9149 67.8977 31.9149 61.9697C31.9149 56.0417 27.1066 51.2361 21.1752 51.2361C15.2439 51.2361 10.4355 56.0417 10.4355 61.9697C10.4355 67.8977 15.2439 72.7033 21.1752 72.7033Z" fill="#D560B4"/>
<path d="M21.1752 71.9632C27.1066 71.9632 31.9149 67.1576 31.9149 61.2296C31.9149 55.3016 27.1066 50.496 21.1752 50.496C15.2439 50.496 10.4355 55.3016 10.4355 61.2296C10.4355 67.1576 15.2439 71.9632 21.1752 71.9632Z" fill="#D45FB3"/>
<path d="M21.1752 71.2223C27.1066 71.2223 31.9149 66.4167 31.9149 60.4886C31.9149 54.5606 27.1066 49.755 21.1752 49.755C15.2439 49.755 10.4355 54.5606 10.4355 60.4886C10.4355 66.4167 15.2439 71.2223 21.1752 71.2223Z" fill="#D35EB2"/>
<path d="M21.1752 70.4819C27.1066 70.4819 31.9149 65.6763 31.9149 59.7483C31.9149 53.8203 27.1066 49.0146 21.1752 49.0146C15.2439 49.0146 10.4355 53.8203 10.4355 59.7483C10.4355 65.6763 15.2439 70.4819 21.1752 70.4819Z" fill="#D25DB1"/>
<path d="M21.1752 69.7116C27.1066 69.7116 31.9149 64.906 31.9149 58.978C31.9149 53.05 27.1066 48.2444 21.1752 48.2444C15.2439 48.2444 10.4355 53.05 10.4355 58.978C10.4355 64.906 15.2439 69.7116 21.1752 69.7116Z" fill="#D15CB0"/>
<path d="M21.1752 68.9699C27.1066 68.9699 31.9149 64.1643 31.9149 58.2363C31.9149 52.3083 27.1066 47.5027 21.1752 47.5027C15.2439 47.5027 10.4355 52.3083 10.4355 58.2363C10.4355 64.1643 15.2439 68.9699 21.1752 68.9699Z" fill="#D05BB0"/>
<path d="M21.1752 68.2314C27.1066 68.2314 31.9149 63.4258 31.9149 57.4978C31.9149 51.5698 27.1066 46.7642 21.1752 46.7642C15.2439 46.7642 10.4355 51.5698 10.4355 57.4978C10.4355 63.4258 15.2439 68.2314 21.1752 68.2314Z" fill="#CF5AAF"/>
<path d="M21.1752 67.4911C27.1066 67.4911 31.9149 62.6855 31.9149 56.7574C31.9149 50.8294 27.1066 46.0238 21.1752 46.0238C15.2439 46.0238 10.4355 50.8294 10.4355 56.7574C10.4355 62.6855 15.2439 67.4911 21.1752 67.4911Z" fill="#CE59AE"/>
<path d="M21.1752 66.7501C27.1066 66.7501 31.9149 61.9445 31.9149 56.0165C31.9149 50.0884 27.1066 45.2828 21.1752 45.2828C15.2439 45.2828 10.4355 50.0884 10.4355 56.0165C10.4355 61.9445 15.2439 66.7501 21.1752 66.7501Z" fill="#CD58AD"/>
<path d="M21.1752 66.01C27.1066 66.01 31.9149 61.2044 31.9149 55.2764C31.9149 49.3483 27.1066 44.5427 21.1752 44.5427C15.2439 44.5427 10.4355 49.3483 10.4355 55.2764C10.4355 61.2044 15.2439 66.01 21.1752 66.01Z" fill="#CC57AC"/>
<path d="M21.1752 65.2389C27.1066 65.2389 31.9149 60.4333 31.9149 54.5052C31.9149 48.5772 27.1066 43.7716 21.1752 43.7716C15.2439 43.7716 10.4355 48.5772 10.4355 54.5052C10.4355 60.4333 15.2439 65.2389 21.1752 65.2389Z" fill="#CB56AB"/>
<path d="M21.1752 64.4986C27.1066 64.4986 31.9149 59.693 31.9149 53.765C31.9149 47.837 27.1066 43.0314 21.1752 43.0314C15.2439 43.0314 10.4355 47.837 10.4355 53.765C10.4355 59.693 15.2439 64.4986 21.1752 64.4986Z" fill="#CA55AA"/>
<path d="M21.1752 63.7585C27.1066 63.7585 31.9149 58.9529 31.9149 53.0249C31.9149 47.0969 27.1066 42.2913 21.1752 42.2913C15.2439 42.2913 10.4355 47.0969 10.4355 53.0249C10.4355 58.9529 15.2439 63.7585 21.1752 63.7585Z" fill="#C954A9"/>
<path d="M21.1752 63.0184C27.1066 63.0184 31.9149 58.2128 31.9149 52.2848C31.9149 46.3568 27.1066 41.5511 21.1752 41.5511C15.2439 41.5511 10.4355 46.3568 10.4355 52.2848C10.4355 58.2128 15.2439 63.0184 21.1752 63.0184Z" fill="#C853A8"/>
<path d="M21.1752 62.2776C27.1066 62.2776 31.9149 57.472 31.9149 51.5439C31.9149 45.6159 27.1066 40.8103 21.1752 40.8103C15.2439 40.8103 10.4355 45.6159 10.4355 51.5439C10.4355 57.472 15.2439 62.2776 21.1752 62.2776Z" fill="#C752A7"/>
<path d="M21.1752 61.5069C27.1066 61.5069 31.9149 56.7013 31.9149 50.7733C31.9149 44.8453 27.1066 40.0397 21.1752 40.0397C15.2439 40.0397 10.4355 44.8453 10.4355 50.7733C10.4355 56.7013 15.2439 61.5069 21.1752 61.5069Z" fill="#C651A6"/>
<path d="M21.1752 60.7668C27.1066 60.7668 31.9149 55.9612 31.9149 50.0332C31.9149 44.1052 27.1066 39.2996 21.1752 39.2996C15.2439 39.2996 10.4355 44.1052 10.4355 50.0332C10.4355 55.9612 15.2439 60.7668 21.1752 60.7668Z" fill="#C550A5"/>
<path d="M21.1752 60.0266C27.1066 60.0266 31.9149 55.221 31.9149 49.293C31.9149 43.3649 27.1066 38.5593 21.1752 38.5593C15.2439 38.5593 10.4355 43.3649 10.4355 49.293C10.4355 55.221 15.2439 60.0266 21.1752 60.0266Z" fill="#C44FA4"/>
<path d="M21.1752 59.2855C27.1066 59.2855 31.9149 54.4799 31.9149 48.5519C31.9149 42.6238 27.1066 37.8182 21.1752 37.8182C15.2439 37.8182 10.4355 42.6238 10.4355 48.5519C10.4355 54.4799 15.2439 59.2855 21.1752 59.2855Z" fill="#C34EA3"/>
<path d="M21.1752 58.5456C27.1066 58.5456 31.9149 53.74 31.9149 47.812C31.9149 41.884 27.1066 37.0784 21.1752 37.0784C15.2439 37.0784 10.4355 41.884 10.4355 47.812C10.4355 53.74 15.2439 58.5456 21.1752 58.5456Z" fill="#C24DA2"/>
<path d="M21.1752 57.8047C27.1066 57.8047 31.9149 52.9991 31.9149 47.071C31.9149 41.143 27.1066 36.3374 21.1752 36.3374C15.2439 36.3374 10.4355 41.143 10.4355 47.071C10.4355 52.9991 15.2439 57.8047 21.1752 57.8047Z" fill="#C14CA1"/>
<path d="M21.1752 57.0348C27.1066 57.0348 31.9149 52.2292 31.9149 46.3011C31.9149 40.3731 27.1066 35.5675 21.1752 35.5675C15.2439 35.5675 10.4355 40.3731 10.4355 46.3011C10.4355 52.2292 15.2439 57.0348 21.1752 57.0348Z" fill="#C14CA0"/>
<path d="M21.1752 56.2945C27.1066 56.2945 31.9149 51.4889 31.9149 45.5609C31.9149 39.6329 27.1066 34.8273 21.1752 34.8273C15.2439 34.8273 10.4355 39.6329 10.4355 45.5609C10.4355 51.4889 15.2439 56.2945 21.1752 56.2945Z" fill="#C04B9F"/>
<path d="M21.1752 55.5537C27.1066 55.5537 31.9149 50.7481 31.9149 44.8201C31.9149 38.892 27.1066 34.0864 21.1752 34.0864C15.2439 34.0864 10.4355 38.892 10.4355 44.8201C10.4355 50.7481 15.2439 55.5537 21.1752 55.5537Z" fill="#BF4A9E"/>
<path d="M21.1752 54.813C27.1066 54.813 31.9149 50.0074 31.9149 44.0793C31.9149 38.1513 27.1066 33.3457 21.1752 33.3457C15.2439 33.3457 10.4355 38.1513 10.4355 44.0793C10.4355 50.0074 15.2439 54.813 21.1752 54.813Z" fill="#BE499D"/>
<path d="M21.1752 54.0736C27.1066 54.0736 31.9149 49.268 31.9149 43.34C31.9149 37.4119 27.1066 32.6063 21.1752 32.6063C15.2439 32.6063 10.4355 37.4119 10.4355 43.34C10.4355 49.268 15.2439 54.0736 21.1752 54.0736Z" fill="#BD489C"/>
<path d="M21.1752 53.3028C27.1066 53.3028 31.9149 48.4972 31.9149 42.5692C31.9149 36.6412 27.1066 31.8356 21.1752 31.8356C15.2439 31.8356 10.4355 36.6412 10.4355 42.5692C10.4355 48.4972 15.2439 53.3028 21.1752 53.3028Z" fill="#BC479B"/>
<path d="M21.1752 52.5619C27.1066 52.5619 31.9149 47.7563 31.9149 41.8282C31.9149 35.9002 27.1066 31.0946 21.1752 31.0946C15.2439 31.0946 10.4355 35.9002 10.4355 41.8282C10.4355 47.7563 15.2439 52.5619 21.1752 52.5619Z" fill="#BB469A"/>
<path d="M21.1752 51.8221C27.1066 51.8221 31.9149 47.0165 31.9149 41.0885C31.9149 35.1605 27.1066 30.3549 21.1752 30.3549C15.2439 30.3549 10.4355 35.1605 10.4355 41.0885C10.4355 47.0165 15.2439 51.8221 21.1752 51.8221Z" fill="#BA4599"/>
<path d="M21.1752 51.0819C27.1066 51.0819 31.9149 46.2763 31.9149 40.3483C31.9149 34.4202 27.1066 29.6146 21.1752 29.6146C15.2439 29.6146 10.4355 34.4202 10.4355 40.3483C10.4355 46.2763 15.2439 51.0819 21.1752 51.0819Z" fill="#B94498"/>
<path d="M21.1752 50.3409C27.1066 50.3409 31.9149 45.5353 31.9149 39.6073C31.9149 33.6793 27.1066 28.8737 21.1752 28.8737C15.2439 28.8737 10.4355 33.6793 10.4355 39.6073C10.4355 45.5353 15.2439 50.3409 21.1752 50.3409Z" fill="#B84397"/>
<path d="M21.1752 49.6017C27.1066 49.6017 31.9149 44.796 31.9149 38.868C31.9149 32.94 27.1066 28.1344 21.1752 28.1344C15.2439 28.1344 10.4355 32.94 10.4355 38.868C10.4355 44.796 15.2439 49.6017 21.1752 49.6017Z" fill="#B74296"/>
<path d="M21.1752 48.83C27.1066 48.83 31.9149 44.0244 31.9149 38.0964C31.9149 32.1684 27.1066 27.3628 21.1752 27.3628C15.2439 27.3628 10.4355 32.1684 10.4355 38.0964C10.4355 44.0244 15.2439 48.83 21.1752 48.83Z" fill="#B64195"/>
<path d="M21.1752 48.0902C27.1066 48.0902 31.9149 43.2846 31.9149 37.3566C31.9149 31.4285 27.1066 26.6229 21.1752 26.6229C15.2439 26.6229 10.4355 31.4285 10.4355 37.3566C10.4355 43.2846 15.2439 48.0902 21.1752 48.0902Z" fill="#B54094"/>
<path d="M21.1752 47.3492C27.1066 47.3492 31.9149 42.5436 31.9149 36.6156C31.9149 30.6876 27.1066 25.882 21.1752 25.882C15.2439 25.882 10.4355 30.6876 10.4355 36.6156C10.4355 42.5436 15.2439 47.3492 21.1752 47.3492Z" fill="#B43F93"/>
<path d="M21.1752 46.6091C27.1066 46.6091 31.9149 41.8035 31.9149 35.8755C31.9149 29.9475 27.1066 25.1418 21.1752 25.1418C15.2439 25.1418 10.4355 29.9475 10.4355 35.8755C10.4355 41.8035 15.2439 46.6091 21.1752 46.6091Z" fill="#B33E92"/>
<path d="M21.1752 45.8697C27.1066 45.8697 31.9149 41.0641 31.9149 35.1361C31.9149 29.2081 27.1066 24.4025 21.1752 24.4025C15.2439 24.4025 10.4355 29.2081 10.4355 35.1361C10.4355 41.0641 15.2439 45.8697 21.1752 45.8697Z" fill="#B23D91"/>
<path d="M21.1752 45.0973C27.1066 45.0973 31.9149 40.2917 31.9149 34.3636C31.9149 28.4356 27.1066 23.63 21.1752 23.63C15.2439 23.63 10.4355 28.4356 10.4355 34.3636C10.4355 40.2917 15.2439 45.0973 21.1752 45.0973Z" fill="#B13C90"/>
<path d="M21.1752 44.3576C27.1066 44.3576 31.9149 39.552 31.9149 33.624C31.9149 27.696 27.1066 22.8904 21.1752 22.8904C15.2439 22.8904 10.4355 27.696 10.4355 33.624C10.4355 39.552 15.2439 44.3576 21.1752 44.3576Z" fill="#B03B90"/>
<path d="M21.1752 43.6173C27.1066 43.6173 31.9149 38.8117 31.9149 32.8837C31.9149 26.9556 27.1066 22.15 21.1752 22.15C15.2439 22.15 10.4355 26.9556 10.4355 32.8837C10.4355 38.8117 15.2439 43.6173 21.1752 43.6173Z" fill="#AF3A8F"/>
<path d="M21.1752 42.8772C27.1066 42.8772 31.9149 38.0716 31.9149 32.1435C31.9149 26.2155 27.1066 21.4099 21.1752 21.4099C15.2439 21.4099 10.4355 26.2155 10.4355 32.1435C10.4355 38.0716 15.2439 42.8772 21.1752 42.8772Z" fill="#AE398E"/>
<path d="M21.1752 42.1371C27.1066 42.1371 31.9149 37.3314 31.9149 31.4034C31.9149 25.4754 27.1066 20.6698 21.1752 20.6698C15.2439 20.6698 10.4355 25.4754 10.4355 31.4034C10.4355 37.3314 15.2439 42.1371 21.1752 42.1371Z" fill="#AD388D"/>
<path d="M21.1752 41.3968C27.1066 41.3968 31.9149 36.5912 31.9149 30.6632C31.9149 24.7352 27.1066 19.9296 21.1752 19.9296C15.2439 19.9296 10.4355 24.7352 10.4355 30.6632C10.4355 36.5912 15.2439 41.3968 21.1752 41.3968Z" fill="#AC378C"/>
<path d="M21.1752 40.6258C27.1066 40.6258 31.9149 35.8202 31.9149 29.8922C31.9149 23.9642 27.1066 19.1586 21.1752 19.1586C15.2439 19.1586 10.4355 23.9642 10.4355 29.8922C10.4355 35.8202 15.2439 40.6258 21.1752 40.6258Z" fill="#AB378B"/>
<path d="M21.1752 39.8856C27.1066 39.8856 31.9149 35.08 31.9149 29.152C31.9149 23.2239 27.1066 18.4183 21.1752 18.4183C15.2439 18.4183 10.4355 23.2239 10.4355 29.152C10.4355 35.08 15.2439 39.8856 21.1752 39.8856Z" fill="#AA368A"/>
<path d="M21.1752 39.1445C27.1066 39.1445 31.9149 34.3389 31.9149 28.4109C31.9149 22.4829 27.1066 17.6772 21.1752 17.6772C15.2439 17.6772 10.4355 22.4829 10.4355 28.4109C10.4355 34.3389 15.2439 39.1445 21.1752 39.1445Z" fill="#A93589"/>
<path d="M21.1752 38.405C27.1066 38.405 31.9149 33.5994 31.9149 27.6714C31.9149 21.7434 27.1066 16.9377 21.1752 16.9377C15.2439 16.9377 10.4355 21.7434 10.4355 27.6714C10.4355 33.5994 15.2439 38.405 21.1752 38.405Z" fill="#A83488"/>
<path d="M21.1752 37.6645C27.1066 37.6645 31.9149 32.8589 31.9149 26.9309C31.9149 21.0029 27.1066 16.1973 21.1752 16.1973C15.2439 16.1973 10.4355 21.0029 10.4355 26.9309C10.4355 32.8589 15.2439 37.6645 21.1752 37.6645Z" fill="#A73387"/>
<path d="M21.1752 36.9242C27.1066 36.9242 31.9149 32.1186 31.9149 26.1905C31.9149 20.2625 27.1066 15.4569 21.1752 15.4569C15.2439 15.4569 10.4355 20.2625 10.4355 26.1905C10.4355 32.1186 15.2439 36.9242 21.1752 36.9242Z" fill="#A63286"/>
<path d="M21.1752 36.1528C27.1066 36.1528 31.9149 31.3472 31.9149 25.4192C31.9149 19.4912 27.1066 14.6855 21.1752 14.6855C15.2439 14.6855 10.4355 19.4912 10.4355 25.4192C10.4355 31.3472 15.2439 36.1528 21.1752 36.1528Z" fill="#A53185"/>
<path d="M21.1752 35.4133C27.1066 35.4133 31.9149 30.6077 31.9149 24.6797C31.9149 18.7517 27.1066 13.946 21.1752 13.946C15.2439 13.946 10.4355 18.7517 10.4355 24.6797C10.4355 30.6077 15.2439 35.4133 21.1752 35.4133Z" fill="#A43084"/>
<path d="M21.1752 34.6731C27.1066 34.6731 31.9149 29.8675 31.9149 23.9394C31.9149 18.0114 27.1066 13.2058 21.1752 13.2058C15.2439 13.2058 10.4355 18.0114 10.4355 23.9394C10.4355 29.8675 15.2439 34.6731 21.1752 34.6731Z" fill="#A32F83"/>
<path d="M21.1752 33.9321C27.1066 33.9321 31.9149 29.1265 31.9149 23.1985C31.9149 17.2705 27.1066 12.4648 21.1752 12.4648C15.2439 12.4648 10.4355 17.2705 10.4355 23.1985C10.4355 29.1265 15.2439 33.9321 21.1752 33.9321Z" fill="#A22E82"/>
<path d="M21.1752 33.1924C27.1066 33.1924 31.9149 28.3867 31.9149 22.4587C31.9149 16.5307 27.1066 11.7251 21.1752 11.7251C15.2439 11.7251 10.4355 16.5307 10.4355 22.4587C10.4355 28.3867 15.2439 33.1924 21.1752 33.1924Z" fill="#A12D81"/>
<path d="M21.1752 32.4209C27.1066 32.4209 31.9149 27.6153 31.9149 21.6872C31.9149 15.7592 27.1066 10.9536 21.1752 10.9536C15.2439 10.9536 10.4355 15.7592 10.4355 21.6872C10.4355 27.6153 15.2439 32.4209 21.1752 32.4209Z" fill="#A02C80"/>
<path d="M21.5756 32.6367C27.507 32.6367 32.3153 27.8311 32.3153 21.9031C32.3153 15.975 27.507 11.1694 21.5756 11.1694C15.6443 11.1694 10.8359 15.975 10.8359 21.9031C10.8359 27.8311 15.6443 32.6367 21.5756 32.6367Z" fill="#A02E80"/>
<path d="M21.9462 32.8526C27.8776 32.8526 32.6859 28.047 32.6859 22.119C32.6859 16.191 27.8776 11.3854 21.9462 11.3854C16.0149 11.3854 11.2065 16.191 11.2065 22.119C11.2065 28.047 16.0149 32.8526 21.9462 32.8526Z" fill="#A02F80"/>
<path d="M22.3486 33.0376C28.2799 33.0376 33.0883 28.232 33.0883 22.3039C33.0883 16.3759 28.2799 11.5703 22.3486 11.5703C16.4172 11.5703 11.6089 16.3759 11.6089 22.3039C11.6089 28.232 16.4172 33.0376 22.3486 33.0376Z" fill="#A1317F"/>
<path d="M22.7177 33.2534C28.6491 33.2534 33.4574 28.4478 33.4574 22.5198C33.4574 16.5917 28.6491 11.7861 22.7177 11.7861C16.7863 11.7861 11.978 16.5917 11.978 22.5198C11.978 28.4478 16.7863 33.2534 22.7177 33.2534Z" fill="#A1337F"/>
<path d="M23.0883 33.4693C29.0197 33.4693 33.828 28.6637 33.828 22.7357C33.828 16.8077 29.0197 12.0021 23.0883 12.0021C17.157 12.0021 12.3486 16.8077 12.3486 22.7357C12.3486 28.6637 17.157 33.4693 23.0883 33.4693Z" fill="#A1347F"/>
<path d="M23.4897 33.6554C29.4211 33.6554 34.2294 28.8498 34.2294 22.9217C34.2294 16.9937 29.4211 12.1881 23.4897 12.1881C17.5583 12.1881 12.75 16.9937 12.75 22.9217C12.75 28.8498 17.5583 33.6554 23.4897 33.6554Z" fill="#A1367F"/>
<path d="M23.8603 33.8708C29.7917 33.8708 34.6 29.0652 34.6 23.1372C34.6 17.2092 29.7917 12.4036 23.8603 12.4036C17.9289 12.4036 13.1206 17.2092 13.1206 23.1372C13.1206 29.0652 17.9289 33.8708 23.8603 33.8708Z" fill="#A1387E"/>
<path d="M24.2304 34.0866C30.1618 34.0866 34.9701 29.281 34.9701 23.353C34.9701 17.425 30.1618 12.6194 24.2304 12.6194C18.299 12.6194 13.4907 17.425 13.4907 23.353C13.4907 29.281 18.299 34.0866 24.2304 34.0866Z" fill="#A2397E"/>
<path d="M24.6318 34.2719C30.5631 34.2719 35.3715 29.4663 35.3715 23.5383C35.3715 17.6103 30.5631 12.8047 24.6318 12.8047C18.7004 12.8047 13.8921 17.6103 13.8921 23.5383C13.8921 29.4663 18.7004 34.2719 24.6318 34.2719Z" fill="#A23B7E"/>
<path d="M25.0019 34.4879C30.9333 34.4879 35.7416 29.6823 35.7416 23.7543C35.7416 17.8262 30.9333 13.0206 25.0019 13.0206C19.0705 13.0206 14.2622 17.8262 14.2622 23.7543C14.2622 29.6823 19.0705 34.4879 25.0019 34.4879Z" fill="#A23D7E"/>
<path d="M25.371 34.7037C31.3024 34.7037 36.1107 29.8981 36.1107 23.9701C36.1107 18.0421 31.3024 13.2365 25.371 13.2365C19.4397 13.2365 14.6313 18.0421 14.6313 23.9701C14.6313 29.8981 19.4397 34.7037 25.371 34.7037Z" fill="#A23E7D"/>
<path d="M25.7724 34.8886C31.7038 34.8886 36.5121 30.083 36.5121 24.155C36.5121 18.227 31.7038 13.4214 25.7724 13.4214C19.841 13.4214 15.0327 18.227 15.0327 24.155C15.0327 30.083 19.841 34.8886 25.7724 34.8886Z" fill="#A2407D"/>
<path d="M26.1425 35.1045C32.0739 35.1045 36.8822 30.2989 36.8822 24.3708C36.8822 18.4428 32.0739 13.6372 26.1425 13.6372C20.2112 13.6372 15.4028 18.4428 15.4028 24.3708C15.4028 30.2989 20.2112 35.1045 26.1425 35.1045Z" fill="#A2427D"/>
<path d="M26.5131 35.3203C32.4445 35.3203 37.2528 30.5147 37.2528 24.5867C37.2528 18.6586 32.4445 13.853 26.5131 13.853C20.5818 13.853 15.7734 18.6586 15.7734 24.5867C15.7734 30.5147 20.5818 35.3203 26.5131 35.3203Z" fill="#A3437D"/>
<path d="M26.9145 35.505C32.8459 35.505 37.6542 30.6994 37.6542 24.7713C37.6542 18.8433 32.8459 14.0377 26.9145 14.0377C20.9831 14.0377 16.1748 18.8433 16.1748 24.7713C16.1748 30.6994 20.9831 35.505 26.9145 35.505Z" fill="#A3457C"/>
<path d="M27.2846 35.7215C33.216 35.7215 38.0243 30.9159 38.0243 24.9879C38.0243 19.0599 33.216 14.2543 27.2846 14.2543C21.3532 14.2543 16.5449 19.0599 16.5449 24.9879C16.5449 30.9159 21.3532 35.7215 27.2846 35.7215Z" fill="#A3477C"/>
<path d="M27.6562 35.9065C33.5876 35.9065 38.3959 31.1009 38.3959 25.1728C38.3959 19.2448 33.5876 14.4392 27.6562 14.4392C21.7248 14.4392 16.9165 19.2448 16.9165 25.1728C16.9165 31.1009 21.7248 35.9065 27.6562 35.9065Z" fill="#A3487C"/>
<path d="M28.0566 36.1217C33.9879 36.1217 38.7963 31.3161 38.7963 25.388C38.7963 19.46 33.9879 14.6544 28.0566 14.6544C22.1252 14.6544 17.3169 19.46 17.3169 25.388C17.3169 31.3161 22.1252 36.1217 28.0566 36.1217Z" fill="#A34A7C"/>
<path d="M28.4272 36.3381C34.3586 36.3381 39.1669 31.5325 39.1669 25.6045C39.1669 19.6765 34.3586 14.8708 28.4272 14.8708C22.4958 14.8708 17.6875 19.6765 17.6875 25.6045C17.6875 31.5325 22.4958 36.3381 28.4272 36.3381Z" fill="#A44C7C"/>
<path d="M28.8276 36.5226C34.7589 36.5226 39.5673 31.7169 39.5673 25.7889C39.5673 19.8609 34.7589 15.0553 28.8276 15.0553C22.8962 15.0553 18.0879 19.8609 18.0879 25.7889C18.0879 31.7169 22.8962 36.5226 28.8276 36.5226Z" fill="#A44E7B"/>
<path d="M29.1987 36.7386C35.13 36.7386 39.9384 31.933 39.9384 26.005C39.9384 20.077 35.13 15.2714 29.1987 15.2714C23.2673 15.2714 18.459 20.077 18.459 26.005C18.459 31.933 23.2673 36.7386 29.1987 36.7386Z" fill="#A44F7B"/>
<path d="M29.5688 36.9548C35.5002 36.9548 40.3085 32.1492 40.3085 26.2212C40.3085 20.2932 35.5002 15.4875 29.5688 15.4875C23.6374 15.4875 18.8291 20.2932 18.8291 26.2212C18.8291 32.1492 23.6374 36.9548 29.5688 36.9548Z" fill="#A4517B"/>
<path d="M29.9697 37.1411C35.901 37.1411 40.7094 32.3355 40.7094 26.4075C40.7094 20.4794 35.901 15.6738 29.9697 15.6738C24.0383 15.6738 19.23 20.4794 19.23 26.4075C19.23 32.3355 24.0383 37.1411 29.9697 37.1411Z" fill="#A4537B"/>
<path d="M30.3412 37.3568C36.2726 37.3568 41.0809 32.5512 41.0809 26.6232C41.0809 20.6951 36.2726 15.8895 30.3412 15.8895C24.4099 15.8895 19.6016 20.6951 19.6016 26.6232C19.6016 32.5512 24.4099 37.3568 30.3412 37.3568Z" fill="#A5547A"/>
<path d="M30.7099 37.5726C36.6413 37.5726 41.4496 32.767 41.4496 26.839C41.4496 20.911 36.6413 16.1053 30.7099 16.1053C24.7785 16.1053 19.9702 20.911 19.9702 26.839C19.9702 32.767 24.7785 37.5726 30.7099 37.5726Z" fill="#A5567A"/>
<path d="M31.1127 37.7569C37.0441 37.7569 41.8524 32.9513 41.8524 27.0233C41.8524 21.0953 37.0441 16.2897 31.1127 16.2897C25.1814 16.2897 20.373 21.0953 20.373 27.0233C20.373 32.9513 25.1814 37.7569 31.1127 37.7569Z" fill="#A5587A"/>
<path d="M31.4829 37.9734C37.4142 37.9734 42.2225 33.1678 42.2225 27.2397C42.2225 21.3117 37.4142 16.5061 31.4829 16.5061C25.5515 16.5061 20.7432 21.3117 20.7432 27.2397C20.7432 33.1678 25.5515 37.9734 31.4829 37.9734Z" fill="#A5597A"/>
<path d="M31.8515 38.1884C37.7829 38.1884 42.5912 33.3828 42.5912 27.4548C42.5912 21.5268 37.7829 16.7212 31.8515 16.7212C25.9201 16.7212 21.1118 21.5268 21.1118 27.4548C21.1118 33.3828 25.9201 38.1884 31.8515 38.1884Z" fill="#A55B79"/>
<path d="M32.2538 38.3747C38.1852 38.3747 42.9935 33.5691 42.9935 27.6411C42.9935 21.7131 38.1852 16.9075 32.2538 16.9075C26.3225 16.9075 21.5142 21.7131 21.5142 27.6411C21.5142 33.5691 26.3225 38.3747 32.2538 38.3747Z" fill="#A65D79"/>
<path d="M32.6249 38.5901C38.5563 38.5901 43.3646 33.7845 43.3646 27.8564C43.3646 21.9284 38.5563 17.1228 32.6249 17.1228C26.6936 17.1228 21.8853 21.9284 21.8853 27.8564C21.8853 33.7845 26.6936 38.5901 32.6249 38.5901Z" fill="#A65E79"/>
<path d="M32.9941 38.8051C38.9254 38.8051 43.7338 33.9995 43.7338 28.0715C43.7338 22.1435 38.9254 17.3379 32.9941 17.3379C27.0627 17.3379 22.2544 22.1435 22.2544 28.0715C22.2544 33.9995 27.0627 38.8051 32.9941 38.8051Z" fill="#A66079"/>
<path d="M33.3954 38.9906C39.3268 38.9906 44.1351 34.185 44.1351 28.2569C44.1351 22.3289 39.3268 17.5233 33.3954 17.5233C27.4641 17.5233 22.6558 22.3289 22.6558 28.2569C22.6558 34.185 27.4641 38.9906 33.3954 38.9906Z" fill="#A66279"/>
<path d="M33.7656 39.2063C39.6969 39.2063 44.5053 34.4007 44.5053 28.4726C44.5053 22.5446 39.6969 17.739 33.7656 17.739C27.8342 17.739 23.0259 22.5446 23.0259 28.4726C23.0259 34.4007 27.8342 39.2063 33.7656 39.2063Z" fill="#A66378"/>
<path d="M34.1362 39.4221C40.0675 39.4221 44.8759 34.6165 44.8759 28.6885C44.8759 22.7604 40.0675 17.9548 34.1362 17.9548C28.2048 17.9548 23.3965 22.7604 23.3965 28.6885C23.3965 34.6165 28.2048 39.4221 34.1362 39.4221Z" fill="#A76578"/>
<path d="M34.537 39.607C40.4684 39.607 45.2767 34.8014 45.2767 28.8734C45.2767 22.9454 40.4684 18.1398 34.537 18.1398C28.6057 18.1398 23.7974 22.9454 23.7974 28.8734C23.7974 34.8014 28.6057 39.607 34.537 39.607Z" fill="#A76778"/>
<path d="M34.9077 39.8237C40.839 39.8237 45.6473 35.0181 45.6473 29.0901C45.6473 23.1621 40.839 18.3564 34.9077 18.3564C28.9763 18.3564 24.168 23.1621 24.168 29.0901C24.168 35.0181 28.9763 39.8237 34.9077 39.8237Z" fill="#A76878"/>
<path d="M35.308 40.0091C41.2394 40.0091 46.0477 35.2035 46.0477 29.2755C46.0477 23.3475 41.2394 18.5419 35.308 18.5419C29.3767 18.5419 24.5684 23.3475 24.5684 29.2755C24.5684 35.2035 29.3767 40.0091 35.308 40.0091Z" fill="#A76A77"/>
<path d="M35.6796 40.2249C41.611 40.2249 46.4193 35.4193 46.4193 29.4913C46.4193 23.5633 41.611 18.7577 35.6796 18.7577C29.7483 18.7577 24.9399 23.5633 24.9399 29.4913C24.9399 35.4193 29.7483 40.2249 35.6796 40.2249Z" fill="#A76C77"/>
<path d="M36.0502 40.4406C41.9816 40.4406 46.7899 35.635 46.7899 29.707C46.7899 23.779 41.9816 18.9734 36.0502 18.9734C30.1189 18.9734 25.3105 23.779 25.3105 29.707C25.3105 35.635 30.1189 40.4406 36.0502 40.4406Z" fill="#A76D77"/>
<path d="M36.4506 40.6258C42.382 40.6258 47.1903 35.8202 47.1903 29.8922C47.1903 23.9642 42.382 19.1586 36.4506 19.1586C30.5193 19.1586 25.7109 23.9642 25.7109 29.8922C25.7109 35.8202 30.5193 40.6258 36.4506 40.6258Z" fill="#A86F77"/>
<path d="M36.8227 40.8415C42.7541 40.8415 47.5624 36.0359 47.5624 30.1079C47.5624 24.1799 42.7541 19.3743 36.8227 19.3743C30.8913 19.3743 26.083 24.1799 26.083 30.1079C26.083 36.0359 30.8913 40.8415 36.8227 40.8415Z" fill="#A87176"/>
<path d="M37.1918 41.0573C43.1232 41.0573 47.9315 36.2517 47.9315 30.3237C47.9315 24.3957 43.1232 19.5901 37.1918 19.5901C31.2605 19.5901 26.4521 24.3957 26.4521 30.3237C26.4521 36.2517 31.2605 41.0573 37.1918 41.0573Z" fill="#A87276"/>
<path d="M37.5927 41.2428C43.5241 41.2428 48.3324 36.4372 48.3324 30.5091C48.3324 24.5811 43.5241 19.7755 37.5927 19.7755C31.6613 19.7755 26.853 24.5811 26.853 30.5091C26.853 36.4372 31.6613 41.2428 37.5927 41.2428Z" fill="#A87476"/>
<path d="M37.9623 41.4581C43.8937 41.4581 48.702 36.6525 48.702 30.7245C48.702 24.7965 43.8937 19.9908 37.9623 19.9908C32.031 19.9908 27.2227 24.7965 27.2227 30.7245C27.2227 36.6525 32.031 41.4581 37.9623 41.4581Z" fill="#A87676"/>
<path d="M38.3344 41.674C44.2658 41.674 49.0741 36.8684 49.0741 30.9404C49.0741 25.0124 44.2658 20.2068 38.3344 20.2068C32.403 20.2068 27.5947 25.0124 27.5947 30.9404C27.5947 36.8684 32.403 41.674 38.3344 41.674Z" fill="#A97775"/>
<path d="M38.7358 41.8586C44.6671 41.8586 49.4755 37.053 49.4755 31.125C49.4755 25.197 44.6671 20.3914 38.7358 20.3914C32.8044 20.3914 27.9961 25.197 27.9961 31.125C27.9961 37.053 32.8044 41.8586 38.7358 41.8586Z" fill="#A97975"/>
<path d="M39.1059 42.0752C45.0373 42.0752 49.8456 37.2696 49.8456 31.3415C49.8456 25.4135 45.0373 20.6079 39.1059 20.6079C33.1745 20.6079 28.3662 25.4135 28.3662 31.3415C28.3662 37.2696 33.1745 42.0752 39.1059 42.0752Z" fill="#A97B75"/>
<path d="M39.4745 42.291C45.4059 42.291 50.2142 37.4854 50.2142 31.5574C50.2142 25.6293 45.4059 20.8237 39.4745 20.8237C33.5432 20.8237 28.7349 25.6293 28.7349 31.5574C28.7349 37.4854 33.5432 42.291 39.4745 42.291Z" fill="#A97C75"/>
<path d="M39.8769 42.476C45.8083 42.476 50.6166 37.6704 50.6166 31.7424C50.6166 25.8144 45.8083 21.0088 39.8769 21.0088C33.9455 21.0088 29.1372 25.8144 29.1372 31.7424C29.1372 37.6704 33.9455 42.476 39.8769 42.476Z" fill="#A97E75"/>
<path d="M40.2465 42.6917C46.1779 42.6917 50.9862 37.8861 50.9862 31.9581C50.9862 26.0301 46.1779 21.2245 40.2465 21.2245C34.3152 21.2245 29.5068 26.0301 29.5068 31.9581C29.5068 37.8861 34.3152 42.6917 40.2465 42.6917Z" fill="#AA8074"/>
<path d="M40.6171 42.9077C46.5485 42.9077 51.3568 38.1021 51.3568 32.1741C51.3568 26.246 46.5485 21.4404 40.6171 21.4404C34.6858 21.4404 29.8774 26.246 29.8774 32.1741C29.8774 38.1021 34.6858 42.9077 40.6171 42.9077Z" fill="#AA8174"/>
<path d="M41.02 43.0923C46.9513 43.0923 51.7596 38.2866 51.7596 32.3586C51.7596 26.4306 46.9513 21.625 41.02 21.625C35.0886 21.625 30.2803 26.4306 30.2803 32.3586C30.2803 38.2866 35.0886 43.0923 41.02 43.0923Z" fill="#AA8374"/>
<path d="M41.3886 43.3081C47.32 43.3081 52.1283 38.5025 52.1283 32.5744C52.1283 26.6464 47.32 21.8408 41.3886 21.8408C35.4572 21.8408 30.6489 26.6464 30.6489 32.5744C30.6489 38.5025 35.4572 43.3081 41.3886 43.3081Z" fill="#AA8574"/>
<path d="M41.7895 43.5241C47.7209 43.5241 52.5292 38.7185 52.5292 32.7905C52.5292 26.8625 47.7209 22.0569 41.7895 22.0569C35.8581 22.0569 31.0498 26.8625 31.0498 32.7905C31.0498 38.7185 35.8581 43.5241 41.7895 43.5241Z" fill="#AA8673"/>
<path d="M42.1601 43.7097C48.0915 43.7097 52.8998 38.9041 52.8998 32.9761C52.8998 27.048 48.0915 22.2424 42.1601 22.2424C36.2287 22.2424 31.4204 27.048 31.4204 32.9761C31.4204 38.9041 36.2287 43.7097 42.1601 43.7097Z" fill="#AB8873"/>
<path d="M42.5312 43.9262C48.4626 43.9262 53.2709 39.1206 53.2709 33.1926C53.2709 27.2646 48.4626 22.459 42.5312 22.459C36.5998 22.459 31.7915 27.2646 31.7915 33.1926C31.7915 39.1206 36.5998 43.9262 42.5312 43.9262Z" fill="#AB8A73"/>
<path d="M42.9311 44.1117C48.8625 44.1117 53.6708 39.3061 53.6708 33.378C53.6708 27.45 48.8625 22.6444 42.9311 22.6444C36.9997 22.6444 32.1914 27.45 32.1914 33.378C32.1914 39.3061 36.9997 44.1117 42.9311 44.1117Z" fill="#AB8B73"/>
<path d="M43.3007 44.3263C49.2321 44.3263 54.0404 39.5207 54.0404 33.5926C54.0404 27.6646 49.2321 22.859 43.3007 22.859C37.3694 22.859 32.561 27.6646 32.561 33.5926C32.561 39.5207 37.3694 44.3263 43.3007 44.3263Z" fill="#AB8D72"/>
<path d="M43.6728 44.5421C49.6042 44.5421 54.4125 39.7365 54.4125 33.8085C54.4125 27.8804 49.6042 23.0748 43.6728 23.0748C37.7414 23.0748 32.9331 27.8804 32.9331 33.8085C32.9331 39.7365 37.7414 44.5421 43.6728 44.5421Z" fill="#AB8F72"/>
<path d="M44.0737 44.7275C50.005 44.7275 54.8134 39.9219 54.8134 33.9939C54.8134 28.0659 50.005 23.2603 44.0737 23.2603C38.1423 23.2603 33.334 28.0659 33.334 33.9939C33.334 39.9219 38.1423 44.7275 44.0737 44.7275Z" fill="#AB9072"/>
<path d="M44.4448 44.9433C50.3761 44.9433 55.1845 40.1377 55.1845 34.2097C55.1845 28.2817 50.3761 23.4761 44.4448 23.4761C38.5134 23.4761 33.7051 28.2817 33.7051 34.2097C33.7051 40.1377 38.5134 44.9433 44.4448 44.9433Z" fill="#AC9272"/>
<path d="M44.8154 45.1599C50.7467 45.1599 55.5551 40.3543 55.5551 34.4263C55.5551 28.4982 50.7467 23.6926 44.8154 23.6926C38.884 23.6926 34.0757 28.4982 34.0757 34.4263C34.0757 40.3543 38.884 45.1599 44.8154 45.1599Z" fill="#AC9472"/>
<path d="M45.2158 45.3441C51.1471 45.3441 55.9554 40.5385 55.9554 34.6105C55.9554 28.6824 51.1471 23.8768 45.2158 23.8768C39.2844 23.8768 34.4761 28.6824 34.4761 34.6105C34.4761 40.5385 39.2844 45.3441 45.2158 45.3441Z" fill="#AC9671"/>
<path d="M45.5869 45.5606C51.5182 45.5606 56.3265 40.755 56.3265 34.827C56.3265 28.899 51.5182 24.0934 45.5869 24.0934C39.6555 24.0934 34.8472 28.899 34.8472 34.827C34.8472 40.755 39.6555 45.5606 45.5869 45.5606Z" fill="#AC9771"/>
<path d="M45.9555 45.7757C51.8869 45.7757 56.6952 40.9701 56.6952 35.0421C56.6952 29.1141 51.8869 24.3085 45.9555 24.3085C40.0241 24.3085 35.2158 29.1141 35.2158 35.0421C35.2158 40.9701 40.0241 45.7757 45.9555 45.7757Z" fill="#AC9971"/>
<path d="M46.3579 45.9612C52.2892 45.9612 57.0975 41.1555 57.0975 35.2275C57.0975 29.2995 52.2892 24.4939 46.3579 24.4939C40.4265 24.4939 35.6182 29.2995 35.6182 35.2275C35.6182 41.1555 40.4265 45.9612 46.3579 45.9612Z" fill="#AD9B71"/>
<path d="M46.7289 46.1773C52.6603 46.1773 57.4686 41.3717 57.4686 35.4437C57.4686 29.5157 52.6603 24.7101 46.7289 24.7101C40.7976 24.7101 35.9893 29.5157 35.9893 35.4437C35.9893 41.3717 40.7976 46.1773 46.7289 46.1773Z" fill="#AD9C70"/>
<path d="M47.0976 46.3924C53.029 46.3924 57.8373 41.5868 57.8373 35.6588C57.8373 29.7308 53.029 24.9252 47.0976 24.9252C41.1662 24.9252 36.3579 29.7308 36.3579 35.6588C36.3579 41.5868 41.1662 46.3924 47.0976 46.3924Z" fill="#AD9E70"/>
<path d="M47.499 46.5777C53.4303 46.5777 58.2386 41.7721 58.2386 35.8441C58.2386 29.9161 53.4303 25.1105 47.499 25.1105C41.5676 25.1105 36.7593 29.9161 36.7593 35.8441C36.7593 41.7721 41.5676 46.5777 47.499 46.5777Z" fill="#ADA070"/>
<path d="M47.8696 46.7951C53.8009 46.7951 58.6093 41.9895 58.6093 36.0615C58.6093 30.1335 53.8009 25.3279 47.8696 25.3279C41.9382 25.3279 37.1299 30.1335 37.1299 36.0615C37.1299 41.9895 41.9382 46.7951 47.8696 46.7951Z" fill="#ADA170"/>
<path d="M48.2719 47.0095C54.2033 47.0095 59.0116 42.2039 59.0116 36.2759C59.0116 30.3478 54.2033 25.5422 48.2719 25.5422C42.3405 25.5422 37.5322 30.3478 37.5322 36.2759C37.5322 42.2039 42.3405 47.0095 48.2719 47.0095Z" fill="#AEA36F"/>
<path d="M48.6411 47.1953C54.5724 47.1953 59.3807 42.3897 59.3807 36.4617C59.3807 30.5336 54.5724 25.728 48.6411 25.728C42.7097 25.728 37.9014 30.5336 37.9014 36.4617C37.9014 42.3897 42.7097 47.1953 48.6411 47.1953Z" fill="#AEA56F"/>
<path d="M49.0117 47.411C54.943 47.411 59.7513 42.6054 59.7513 36.6774C59.7513 30.7493 54.943 25.9437 49.0117 25.9437C43.0803 25.9437 38.272 30.7493 38.272 36.6774C38.272 42.6054 43.0803 47.411 49.0117 47.411Z" fill="#AEA66F"/>
<path d="M49.414 47.5964C55.3454 47.5964 60.1537 42.7908 60.1537 36.8628C60.1537 30.9348 55.3454 26.1292 49.414 26.1292C43.4826 26.1292 38.6743 30.9348 38.6743 36.8628C38.6743 42.7908 43.4826 47.5964 49.414 47.5964Z" fill="#AEA86F"/>
<path d="M49.7831 47.8122C55.7145 47.8122 60.5228 43.0066 60.5228 37.0786C60.5228 31.1506 55.7145 26.345 49.7831 26.345C43.8518 26.345 39.0435 31.1506 39.0435 37.0786C39.0435 43.0066 43.8518 47.8122 49.7831 47.8122Z" fill="#AEAA6F"/>
<path d="M50.1523 48.0279C56.0836 48.0279 60.892 43.2223 60.892 37.2943C60.892 31.3663 56.0836 26.5607 50.1523 26.5607C44.2209 26.5607 39.4126 31.3663 39.4126 37.2943C39.4126 43.2223 44.2209 48.0279 50.1523 48.0279Z" fill="#AFAB6E"/>
<path d="M50.5546 48.213C56.486 48.213 61.2943 43.4074 61.2943 37.4794C61.2943 31.5513 56.486 26.7457 50.5546 26.7457C44.6233 26.7457 39.8149 31.5513 39.8149 37.4794C39.8149 43.4074 44.6233 48.213 50.5546 48.213Z" fill="#AFAD6E"/>
<path d="M50.9257 48.4289C56.8571 48.4289 61.6654 43.6233 61.6654 37.6953C61.6654 31.7673 56.8571 26.9617 50.9257 26.9617C44.9944 26.9617 40.186 31.7673 40.186 37.6953C40.186 43.6233 44.9944 48.4289 50.9257 48.4289Z" fill="#AFAF6E"/>
<path d="M51.2944 48.6446C57.2257 48.6446 62.0341 43.839 62.0341 37.911C62.0341 31.983 57.2257 27.1774 51.2944 27.1774C45.363 27.1774 40.5547 31.983 40.5547 37.911C40.5547 43.839 45.363 48.6446 51.2944 48.6446Z" fill="#AFB06E"/>
<path d="M51.6948 48.83C57.6261 48.83 62.4345 44.0244 62.4345 38.0964C62.4345 32.1684 57.6261 27.3628 51.6948 27.3628C45.7634 27.3628 40.9551 32.1684 40.9551 38.0964C40.9551 44.0244 45.7634 48.83 51.6948 48.83Z" fill="#AFB26D"/>
<path d="M52.0668 49.0454C57.9982 49.0454 62.8065 44.2398 62.8065 38.3118C62.8065 32.3837 57.9982 27.5781 52.0668 27.5781C46.1355 27.5781 41.3271 32.3837 41.3271 38.3118C41.3271 44.2398 46.1355 49.0454 52.0668 49.0454Z" fill="#B0B46D"/>
<path d="M52.4365 49.2614C58.3678 49.2614 63.1761 44.4558 63.1761 38.5278C63.1761 32.5998 58.3678 27.7942 52.4365 27.7942C46.5051 27.7942 41.6968 32.5998 41.6968 38.5278C41.6968 44.4558 46.5051 49.2614 52.4365 49.2614Z" fill="#B0B56D"/>
<path d="M52.8378 49.4459C58.7692 49.4459 63.5775 44.6403 63.5775 38.7123C63.5775 32.7842 58.7692 27.9786 52.8378 27.9786C46.9065 27.9786 42.0981 32.7842 42.0981 38.7123C42.0981 44.6403 46.9065 49.4459 52.8378 49.4459Z" fill="#B0B76D"/>
<path d="M53.2084 49.6626C59.1398 49.6626 63.9481 44.857 63.9481 38.9289C63.9481 33.0009 59.1398 28.1953 53.2084 28.1953C47.2771 28.1953 42.4688 33.0009 42.4688 38.9289C42.4688 44.857 47.2771 49.6626 53.2084 49.6626Z" fill="#B0B96C"/>
<path d="M53.5786 49.8784C59.5099 49.8784 64.3182 45.0728 64.3182 39.1448C64.3182 33.2167 59.5099 28.4111 53.5786 28.4111C47.6472 28.4111 42.8389 33.2167 42.8389 39.1448C42.8389 45.0728 47.6472 49.8784 53.5786 49.8784Z" fill="#B0BA6C"/>
<path d="M53.9799 50.0642C59.9113 50.0642 64.7196 45.2586 64.7196 39.3306C64.7196 33.4025 59.9113 28.5969 53.9799 28.5969C48.0486 28.5969 43.2402 33.4025 43.2402 39.3306C43.2402 45.2586 48.0486 50.0642 53.9799 50.0642Z" fill="#B0BC6C"/>
<path d="M54.35 50.2799C60.2814 50.2799 65.0897 45.4743 65.0897 39.5463C65.0897 33.6182 60.2814 28.8126 54.35 28.8126C48.4187 28.8126 43.6104 33.6182 43.6104 39.5463C43.6104 45.4743 48.4187 50.2799 54.35 50.2799Z" fill="#B1BE6C"/>
<path d="M54.7524 50.4958C60.6837 50.4958 65.4921 45.6902 65.4921 39.7622C65.4921 33.8342 60.6837 29.0286 54.7524 29.0286C48.821 29.0286 44.0127 33.8342 44.0127 39.7622C44.0127 45.6902 48.821 50.4958 54.7524 50.4958Z" fill="#B1BF6B"/>
<path d="M55.122 50.6803C61.0534 50.6803 65.8617 45.8747 65.8617 39.9466C65.8617 34.0186 61.0534 29.213 55.122 29.213C49.1906 29.213 44.3823 34.0186 44.3823 39.9466C44.3823 45.8747 49.1906 50.6803 55.122 50.6803Z" fill="#B1C16B"/>
<path d="M55.4926 50.8967C61.424 50.8967 66.2323 46.0911 66.2323 40.1631C66.2323 34.2351 61.424 29.4294 55.4926 29.4294C49.5613 29.4294 44.7529 34.2351 44.7529 40.1631C44.7529 46.0911 49.5613 50.8967 55.4926 50.8967Z" fill="#B1C36B"/>
<path d="M55.893 51.1125C61.8244 51.1125 66.6327 46.3069 66.6327 40.3789C66.6327 34.4509 61.8244 29.6453 55.893 29.6453C49.9616 29.6453 45.1533 34.4509 45.1533 40.3789C45.1533 46.3069 49.9616 51.1125 55.893 51.1125Z" fill="#B1C46B"/>
<path d="M56.2641 51.2978C62.1955 51.2978 67.0038 46.4922 67.0038 40.5642C67.0038 34.6362 62.1955 29.8306 56.2641 29.8306C50.3327 29.8306 45.5244 34.6362 45.5244 40.5642C45.5244 46.4922 50.3327 51.2978 56.2641 51.2978Z" fill="#B2C66B"/>
<path d="M56.6347 51.5136C62.5661 51.5136 67.3744 46.708 67.3744 40.78C67.3744 34.852 62.5661 30.0464 56.6347 30.0464C50.7033 30.0464 45.895 34.852 45.895 40.78C45.895 46.708 50.7033 51.5136 56.6347 51.5136Z" fill="#B2C86A"/>
<path d="M57.0351 51.6989C62.9665 51.6989 67.7748 46.8933 67.7748 40.9653C67.7748 35.0373 62.9665 30.2317 57.0351 30.2317C51.1037 30.2317 46.2954 35.0373 46.2954 40.9653C46.2954 46.8933 51.1037 51.6989 57.0351 51.6989Z" fill="#B2C96A"/>
<path d="M57.4067 51.9137C63.338 51.9137 68.1464 47.1081 68.1464 41.18C68.1464 35.252 63.338 30.4464 57.4067 30.4464C51.4753 30.4464 46.667 35.252 46.667 41.18C46.667 47.1081 51.4753 51.9137 57.4067 51.9137Z" fill="#B2CB6A"/>
<path d="M57.7753 52.1295C63.7067 52.1295 68.515 47.3239 68.515 41.3959C68.515 35.4678 63.7067 30.6622 57.7753 30.6622C51.844 30.6622 47.0356 35.4678 47.0356 41.3959C47.0356 47.3239 51.844 52.1295 57.7753 52.1295Z" fill="#B2CD6A"/>
<path d="M58.1777 52.3155C64.109 52.3155 68.9174 47.5099 68.9174 41.5819C68.9174 35.6539 64.109 30.8483 58.1777 30.8483C52.2463 30.8483 47.438 35.6539 47.438 41.5819C47.438 47.5099 52.2463 52.3155 58.1777 52.3155Z" fill="#B3CE69"/>
<path d="M58.5483 52.5306C64.4796 52.5306 69.288 47.725 69.288 41.797C69.288 35.869 64.4796 31.0634 58.5483 31.0634C52.6169 31.0634 47.8086 35.869 47.8086 41.797C47.8086 47.725 52.6169 52.5306 58.5483 52.5306Z" fill="#B3D069"/>
<path d="M58.9174 52.7473C64.8488 52.7473 69.6571 47.9417 69.6571 42.0137C69.6571 36.0856 64.8488 31.28 58.9174 31.28C52.9861 31.28 48.1777 36.0856 48.1777 42.0137C48.1777 47.9417 52.9861 52.7473 58.9174 52.7473Z" fill="#B3D269"/>
<path d="M59.3198 52.9314C65.2511 52.9314 70.0595 48.1258 70.0595 42.1977C70.0595 36.2697 65.2511 31.4641 59.3198 31.4641C53.3884 31.4641 48.5801 36.2697 48.5801 42.1977C48.5801 48.1258 53.3884 52.9314 59.3198 52.9314Z" fill="#B3D369"/>
<path d="M59.6889 53.1473C65.6203 53.1473 70.4286 48.3417 70.4286 42.4137C70.4286 36.4857 65.6203 31.6801 59.6889 31.6801C53.7575 31.6801 48.9492 36.4857 48.9492 42.4137C48.9492 48.3417 53.7575 53.1473 59.6889 53.1473Z" fill="#B3D568"/>
<path d="M60.0595 53.3631C65.9909 53.3631 70.7992 48.5575 70.7992 42.6295C70.7992 36.7015 65.9909 31.8959 60.0595 31.8959C54.1281 31.8959 49.3198 36.7015 49.3198 42.6295C49.3198 48.5575 54.1281 53.3631 60.0595 53.3631Z" fill="#B4D768"/>
<path d="M60.4609 53.5492C66.3922 53.5492 71.2006 48.7436 71.2006 42.8155C71.2006 36.8875 66.3922 32.0819 60.4609 32.0819C54.5295 32.0819 49.7212 36.8875 49.7212 42.8155C49.7212 48.7436 54.5295 53.5492 60.4609 53.5492Z" fill="#B4D968"/>
<path d="M60.831 53.7656C66.7624 53.7656 71.5707 48.96 71.5707 43.032C71.5707 37.1039 66.7624 32.2983 60.831 32.2983C54.8996 32.2983 50.0913 37.1039 50.0913 43.032C50.0913 48.96 54.8996 53.7656 60.831 53.7656Z" fill="#B4DA68"/>
<path d="M61.2319 53.9814C67.1632 53.9814 71.9716 49.1758 71.9716 43.2478C71.9716 37.3198 67.1632 32.5142 61.2319 32.5142C55.3005 32.5142 50.4922 37.3198 50.4922 43.2478C50.4922 49.1758 55.3005 53.9814 61.2319 53.9814Z" fill="#B4DC68"/>
<path d="M61.602 54.1659C67.5334 54.1659 72.3417 49.3603 72.3417 43.4322C72.3417 37.5042 67.5334 32.6986 61.602 32.6986C55.6706 32.6986 50.8623 37.5042 50.8623 43.4322C50.8623 49.3603 55.6706 54.1659 61.602 54.1659Z" fill="#B4DE67"/>
<path d="M61.9731 54.3825C67.9044 54.3825 72.7128 49.5769 72.7128 43.6489C72.7128 37.7209 67.9044 32.9153 61.9731 32.9153C56.0417 32.9153 51.2334 37.7209 51.2334 43.6489C51.2334 49.5769 56.0417 54.3825 61.9731 54.3825Z" fill="#B5DF67"/>
<path d="M62.374 54.5976C68.3053 54.5976 73.1136 49.792 73.1136 43.864C73.1136 37.936 68.3053 33.1304 62.374 33.1304C56.4426 33.1304 51.6343 37.936 51.6343 43.864C51.6343 49.792 56.4426 54.5976 62.374 54.5976Z" fill="#B5E167"/>
<path d="M62.7451 54.7826C68.6764 54.7826 73.4847 49.977 73.4847 44.0489C73.4847 38.1209 68.6764 33.3153 62.7451 33.3153C56.8137 33.3153 52.0054 38.1209 52.0054 44.0489C52.0054 49.977 56.8137 54.7826 62.7451 54.7826Z" fill="#B5E367"/>
<path d="M63.1157 54.9992C69.047 54.9992 73.8553 50.1936 73.8553 44.2656C73.8553 38.3376 69.047 33.532 63.1157 33.532C57.1843 33.532 52.376 38.3376 52.376 44.2656C52.376 50.1936 57.1843 54.9992 63.1157 54.9992Z" fill="#B5E466"/>
<path d="M63.5161 55.2142C69.4474 55.2142 74.2557 50.4086 74.2557 44.4806C74.2557 38.5526 69.4474 33.7469 63.5161 33.7469C57.5847 33.7469 52.7764 38.5526 52.7764 44.4806C52.7764 50.4086 57.5847 55.2142 63.5161 55.2142Z" fill="#B5E666"/>
<path d="M63.8871 55.3995C69.8185 55.3995 74.6268 50.5939 74.6268 44.6659C74.6268 38.7379 69.8185 33.9323 63.8871 33.9323C57.9558 33.9323 53.1475 38.7379 53.1475 44.6659C53.1475 50.5939 57.9558 55.3995 63.8871 55.3995Z" fill="#B5E866"/>
<path d="M64.2573 55.6156C70.1886 55.6156 74.997 50.81 74.997 44.8819C74.997 38.9539 70.1886 34.1483 64.2573 34.1483C58.3259 34.1483 53.5176 38.9539 53.5176 44.8819C53.5176 50.81 58.3259 55.6156 64.2573 55.6156Z" fill="#B6E966"/>
<path d="M64.6581 55.8003C70.5895 55.8003 75.3978 50.9947 75.3978 45.0666C75.3978 39.1386 70.5895 34.333 64.6581 34.333C58.7268 34.333 53.9185 39.1386 53.9185 45.0666C53.9185 50.9947 58.7268 55.8003 64.6581 55.8003Z" fill="#B6EB65"/>
<path d="M65.0292 56.0163C70.9606 56.0163 75.7689 51.2107 75.7689 45.2827C75.7689 39.3547 70.9606 34.5491 65.0292 34.5491C59.0979 34.5491 54.2896 39.3547 54.2896 45.2827C54.2896 51.2107 59.0979 56.0163 65.0292 56.0163Z" fill="#B6ED65"/>
<path d="M65.3998 56.232C71.3312 56.232 76.1395 51.4264 76.1395 45.4984C76.1395 39.5704 71.3312 34.7648 65.3998 34.7648C59.4685 34.7648 54.6602 39.5704 54.6602 45.4984C54.6602 51.4264 59.4685 56.232 65.3998 56.232Z" fill="#B6EE65"/>
<path d="M65.8007 56.4181C71.7321 56.4181 76.5404 51.6125 76.5404 45.6844C76.5404 39.7564 71.7321 34.9508 65.8007 34.9508C59.8694 34.9508 55.061 39.7564 55.061 45.6844C55.061 51.6125 59.8694 56.4181 65.8007 56.4181Z" fill="#B6F065"/>
<path d="M66.1713 56.6336C72.1027 56.6336 76.911 51.828 76.911 45.9C76.911 39.972 72.1027 35.1664 66.1713 35.1664C60.24 35.1664 55.4316 39.972 55.4316 45.9C55.4316 51.828 60.24 56.6336 66.1713 56.6336Z" fill="#B7F264"/>
<path d="M66.54 56.8495C72.4713 56.8495 77.2797 52.0438 77.2797 46.1158C77.2797 40.1878 72.4713 35.3822 66.54 35.3822C60.6086 35.3822 55.8003 40.1878 55.8003 46.1158C55.8003 52.0438 60.6086 56.8495 66.54 56.8495Z" fill="#B7F364"/>
<path d="M66.9423 57.0348C72.8737 57.0348 77.682 52.2292 77.682 46.3011C77.682 40.3731 72.8737 35.5675 66.9423 35.5675C61.011 35.5675 56.2026 40.3731 56.2026 46.3011C56.2026 52.2292 61.011 57.0348 66.9423 57.0348Z" fill="#B7F564"/>
<path d="M66.54 57.2508C72.4713 57.2508 77.2797 52.4452 77.2797 46.5172C77.2797 40.5892 72.4713 35.7836 66.54 35.7836C60.6086 35.7836 55.8003 40.5892 55.8003 46.5172C55.8003 52.4452 60.6086 57.2508 66.54 57.2508Z" fill="#B7F465"/>
<path d="M66.1713 57.4657C72.1027 57.4657 76.911 52.6601 76.911 46.732C76.911 40.804 72.1027 35.9984 66.1713 35.9984C60.24 35.9984 55.4316 40.804 55.4316 46.732C55.4316 52.6601 60.24 57.4657 66.1713 57.4657Z" fill="#B8F366"/>
<path d="M65.8007 57.6516C71.7321 57.6516 76.5404 52.846 76.5404 46.918C76.5404 40.9899 71.7321 36.1843 65.8007 36.1843C59.8694 36.1843 55.061 40.9899 55.061 46.918C55.061 52.846 59.8694 57.6516 65.8007 57.6516Z" fill="#B8F266"/>
<path d="M65.3998 57.8673C71.3312 57.8673 76.1395 53.0617 76.1395 47.1337C76.1395 41.2056 71.3312 36.4 65.3998 36.4C59.4685 36.4 54.6602 41.2056 54.6602 47.1337C54.6602 53.0617 59.4685 57.8673 65.3998 57.8673Z" fill="#B8F067"/>
<path d="M65.0292 58.0831C70.9606 58.0831 75.7689 53.2775 75.7689 47.3495C75.7689 41.4215 70.9606 36.6158 65.0292 36.6158C59.0979 36.6158 54.2896 41.4215 54.2896 47.3495C54.2896 53.2775 59.0979 58.0831 65.0292 58.0831Z" fill="#B9EF68"/>
<path d="M64.6581 58.2678C70.5895 58.2678 75.3978 53.4622 75.3978 47.5342C75.3978 41.6061 70.5895 36.8005 64.6581 36.8005C58.7268 36.8005 53.9185 41.6061 53.9185 47.5342C53.9185 53.4622 58.7268 58.2678 64.6581 58.2678Z" fill="#B9EE69"/>
<path d="M64.2573 58.484C70.1886 58.484 74.997 53.6784 74.997 47.7504C74.997 41.8223 70.1886 37.0167 64.2573 37.0167C58.3259 37.0167 53.5176 41.8223 53.5176 47.7504C53.5176 53.6784 58.3259 58.484 64.2573 58.484Z" fill="#B9ED69"/>
<path d="M63.8871 58.6998C69.8185 58.6998 74.6268 53.8942 74.6268 47.9662C74.6268 42.0382 69.8185 37.2325 63.8871 37.2325C57.9558 37.2325 53.1475 42.0382 53.1475 47.9662C53.1475 53.8942 57.9558 58.6998 63.8871 58.6998Z" fill="#BAEC6A"/>
<path d="M63.5161 58.8844C69.4474 58.8844 74.2557 54.0788 74.2557 48.1507C74.2557 42.2227 69.4474 37.4171 63.5161 37.4171C57.5847 37.4171 52.7764 42.2227 52.7764 48.1507C52.7764 54.0788 57.5847 58.8844 63.5161 58.8844Z" fill="#BAEB6B"/>
<path d="M63.1157 59.1009C69.047 59.1009 73.8553 54.2953 73.8553 48.3673C73.8553 42.4393 69.047 37.6337 63.1157 37.6337C57.1843 37.6337 52.376 42.4393 52.376 48.3673C52.376 54.2953 57.1843 59.1009 63.1157 59.1009Z" fill="#BBE96C"/>
<path d="M62.7451 59.3167C68.6764 59.3167 73.4847 54.5111 73.4847 48.5831C73.4847 42.6551 68.6764 37.8495 62.7451 37.8495C56.8137 37.8495 52.0054 42.6551 52.0054 48.5831C52.0054 54.5111 56.8137 59.3167 62.7451 59.3167Z" fill="#BBE86C"/>
<path d="M62.374 59.5014C68.3053 59.5014 73.1136 54.6958 73.1136 48.7678C73.1136 42.8398 68.3053 38.0342 62.374 38.0342C56.4426 38.0342 51.6343 42.8398 51.6343 48.7678C51.6343 54.6958 56.4426 59.5014 62.374 59.5014Z" fill="#BBE76D"/>
<path d="M61.9731 59.7176C67.9044 59.7176 72.7128 54.912 72.7128 48.984C72.7128 43.056 67.9044 38.2504 61.9731 38.2504C56.0417 38.2504 51.2334 43.056 51.2334 48.984C51.2334 54.912 56.0417 59.7176 61.9731 59.7176Z" fill="#BCE66E"/>
<path d="M61.602 59.9038C67.5334 59.9038 72.3417 55.0982 72.3417 49.1702C72.3417 43.2421 67.5334 38.4365 61.602 38.4365C55.6706 38.4365 50.8623 43.2421 50.8623 49.1702C50.8623 55.0982 55.6706 59.9038 61.602 59.9038Z" fill="#BCE56F"/>
<path d="M61.2319 60.1189C67.1632 60.1189 71.9716 55.3133 71.9716 49.3852C71.9716 43.4572 67.1632 38.6516 61.2319 38.6516C55.3005 38.6516 50.4922 43.4572 50.4922 49.3852C50.4922 55.3133 55.3005 60.1189 61.2319 60.1189Z" fill="#BCE470"/>
<path d="M60.831 60.3351C66.7624 60.3351 71.5707 55.5294 71.5707 49.6014C71.5707 43.6734 66.7624 38.8678 60.831 38.8678C54.8996 38.8678 50.0913 43.6734 50.0913 49.6014C50.0913 55.5294 54.8996 60.3351 60.831 60.3351Z" fill="#BDE370"/>
<path d="M60.4609 60.5196C66.3922 60.5196 71.2006 55.714 71.2006 49.786C71.2006 43.858 66.3922 39.0524 60.4609 39.0524C54.5295 39.0524 49.7212 43.858 49.7212 49.786C49.7212 55.714 54.5295 60.5196 60.4609 60.5196Z" fill="#BDE171"/>
<path d="M60.0595 60.7356C65.9909 60.7356 70.7992 55.93 70.7992 50.0019C70.7992 44.0739 65.9909 39.2683 60.0595 39.2683C54.1281 39.2683 49.3198 44.0739 49.3198 50.0019C49.3198 55.93 54.1281 60.7356 60.0595 60.7356Z" fill="#BDE072"/>
<path d="M59.6889 60.9513C65.6203 60.9513 70.4286 56.1457 70.4286 50.2176C70.4286 44.2896 65.6203 39.484 59.6889 39.484C53.7575 39.484 48.9492 44.2896 48.9492 50.2176C48.9492 56.1457 53.7575 60.9513 59.6889 60.9513Z" fill="#BEDF73"/>
<path d="M59.3198 61.1374C65.2511 61.1374 70.0595 56.3318 70.0595 50.4038C70.0595 44.4758 65.2511 39.6702 59.3198 39.6702C53.3884 39.6702 48.5801 44.4758 48.5801 50.4038C48.5801 56.3318 53.3884 61.1374 59.3198 61.1374Z" fill="#BEDE73"/>
<path d="M58.9174 61.3528C64.8488 61.3528 69.6571 56.5471 69.6571 50.6191C69.6571 44.6911 64.8488 39.8855 58.9174 39.8855C52.9861 39.8855 48.1777 44.6911 48.1777 50.6191C48.1777 56.5471 52.9861 61.3528 58.9174 61.3528Z" fill="#BEDD74"/>
<path d="M58.5483 61.5678C64.4796 61.5678 69.288 56.7622 69.288 50.8342C69.288 44.9062 64.4796 40.1006 58.5483 40.1006C52.6169 40.1006 47.8086 44.9062 47.8086 50.8342C47.8086 56.7622 52.6169 61.5678 58.5483 61.5678Z" fill="#BFDC75"/>
<path d="M58.1777 61.7533C64.109 61.7533 68.9174 56.9477 68.9174 51.0196C68.9174 45.0916 64.109 40.286 58.1777 40.286C52.2463 40.286 47.438 45.0916 47.438 51.0196C47.438 56.9477 52.2463 61.7533 58.1777 61.7533Z" fill="#BFDB76"/>
<path d="M57.7753 61.9692C63.7067 61.9692 68.515 57.1636 68.515 51.2356C68.515 45.3076 63.7067 40.502 57.7753 40.502C51.844 40.502 47.0356 45.3076 47.0356 51.2356C47.0356 57.1636 51.844 61.9692 57.7753 61.9692Z" fill="#BFD976"/>
<path d="M57.4067 62.1849C63.338 62.1849 68.1464 57.3793 68.1464 51.4513C68.1464 45.5233 63.338 40.7177 57.4067 40.7177C51.4753 40.7177 46.667 45.5233 46.667 51.4513C46.667 57.3793 51.4753 62.1849 57.4067 62.1849Z" fill="#C0D877"/>
<path d="M57.0351 62.37C62.9665 62.37 67.7748 57.5644 67.7748 51.6363C67.7748 45.7083 62.9665 40.9027 57.0351 40.9027C51.1037 40.9027 46.2954 45.7083 46.2954 51.6363C46.2954 57.5644 51.1037 62.37 57.0351 62.37Z" fill="#C0D778"/>
<path d="M56.6347 62.5864C62.5661 62.5864 67.3744 57.7808 67.3744 51.8528C67.3744 45.9248 62.5661 41.1191 56.6347 41.1191C50.7033 41.1191 45.895 45.9248 45.895 51.8528C45.895 57.7808 50.7033 62.5864 56.6347 62.5864Z" fill="#C0D679"/>
<path d="M56.2641 62.8015C62.1955 62.8015 67.0038 57.9959 67.0038 52.0679C67.0038 46.1398 62.1955 41.3342 56.2641 41.3342C50.3327 41.3342 45.5244 46.1398 45.5244 52.0679C45.5244 57.9959 50.3327 62.8015 56.2641 62.8015Z" fill="#C1D579"/>
<path d="M55.893 62.9878C61.8244 62.9878 66.6327 58.1822 66.6327 52.2541C66.6327 46.3261 61.8244 41.5205 55.893 41.5205C49.9616 41.5205 45.1533 46.3261 45.1533 52.2541C45.1533 58.1822 49.9616 62.9878 55.893 62.9878Z" fill="#C1D47A"/>
<path d="M55.4926 63.2031C61.424 63.2031 66.2323 58.3975 66.2323 52.4695C66.2323 46.5415 61.424 41.7358 55.4926 41.7358C49.5613 41.7358 44.7529 46.5415 44.7529 52.4695C44.7529 58.3975 49.5613 63.2031 55.4926 63.2031Z" fill="#C2D27B"/>
<path d="M55.122 63.3885C61.0534 63.3885 65.8617 58.5829 65.8617 52.6549C65.8617 46.7269 61.0534 41.9213 55.122 41.9213C49.1906 41.9213 44.3823 46.7269 44.3823 52.6549C44.3823 58.5829 49.1906 63.3885 55.122 63.3885Z" fill="#C2D17C"/>
<path d="M54.7524 63.6036C60.6837 63.6036 65.4921 58.798 65.4921 52.87C65.4921 46.942 60.6837 42.1364 54.7524 42.1364C48.821 42.1364 44.0127 46.942 44.0127 52.87C44.0127 58.798 48.821 63.6036 54.7524 63.6036Z" fill="#C2D07D"/>
<path d="M54.35 63.82C60.2814 63.82 65.0897 59.0144 65.0897 53.0864C65.0897 47.1584 60.2814 42.3528 54.35 42.3528C48.4187 42.3528 43.6104 47.1584 43.6104 53.0864C43.6104 59.0144 48.4187 63.82 54.35 63.82Z" fill="#C3CF7D"/>
<path d="M53.9799 64.0057C59.9113 64.0057 64.7196 59.2001 64.7196 53.2721C64.7196 47.3441 59.9113 42.5385 53.9799 42.5385C48.0486 42.5385 43.2402 47.3441 43.2402 53.2721C43.2402 59.2001 48.0486 64.0057 53.9799 64.0057Z" fill="#C3CE7E"/>
<path d="M53.5786 64.221C59.5099 64.221 64.3182 59.4154 64.3182 53.4874C64.3182 47.5594 59.5099 42.7538 53.5786 42.7538C47.6472 42.7538 42.8389 47.5594 42.8389 53.4874C42.8389 59.4154 47.6472 64.221 53.5786 64.221Z" fill="#C3CD7F"/>
<path d="M53.2084 64.4367C59.1398 64.4367 63.9481 59.6311 63.9481 53.7031C63.9481 47.7751 59.1398 42.9695 53.2084 42.9695C47.2771 42.9695 42.4688 47.7751 42.4688 53.7031C42.4688 59.6311 47.2771 64.4367 53.2084 64.4367Z" fill="#C4CC80"/>
<path d="M52.8378 64.6213C58.7692 64.6213 63.5775 59.8157 63.5775 53.8877C63.5775 47.9597 58.7692 43.1541 52.8378 43.1541C46.9065 43.1541 42.0981 47.9597 42.0981 53.8877C42.0981 59.8157 46.9065 64.6213 52.8378 64.6213Z" fill="#C4CA80"/>
<path d="M52.4365 64.838C58.3678 64.838 63.1761 60.0324 63.1761 54.1044C63.1761 48.1763 58.3678 43.3707 52.4365 43.3707C46.5051 43.3707 41.6968 48.1763 41.6968 54.1044C41.6968 60.0324 46.5051 64.838 52.4365 64.838Z" fill="#C4C981"/>
<path d="M52.0668 65.0531C57.9982 65.0531 62.8065 60.2475 62.8065 54.3194C62.8065 48.3914 57.9982 43.5858 52.0668 43.5858C46.1355 43.5858 41.3271 48.3914 41.3271 54.3194C41.3271 60.2475 46.1355 65.0531 52.0668 65.0531Z" fill="#C5C882"/>
<path d="M51.6948 65.2389C57.6261 65.2389 62.4345 60.4333 62.4345 54.5052C62.4345 48.5772 57.6261 43.7716 51.6948 43.7716C45.7634 43.7716 40.9551 48.5772 40.9551 54.5052C40.9551 60.4333 45.7634 65.2389 51.6948 65.2389Z" fill="#C5C783"/>
<path d="M51.2944 65.4547C57.2257 65.4547 62.0341 60.6491 62.0341 54.7211C62.0341 48.793 57.2257 43.9874 51.2944 43.9874C45.363 43.9874 40.5547 48.793 40.5547 54.7211C40.5547 60.6491 45.363 65.4547 51.2944 65.4547Z" fill="#C5C683"/>
<path d="M50.9257 65.6704C56.8571 65.6704 61.6654 60.8648 61.6654 54.9368C61.6654 49.0087 56.8571 44.2031 50.9257 44.2031C44.9944 44.2031 40.186 49.0087 40.186 54.9368C40.186 60.8648 44.9944 65.6704 50.9257 65.6704Z" fill="#C6C584"/>
<path d="M50.5546 65.8552C56.486 65.8552 61.2943 61.0496 61.2943 55.1216C61.2943 49.1935 56.486 44.3879 50.5546 44.3879C44.6233 44.3879 39.8149 49.1935 39.8149 55.1216C39.8149 61.0496 44.6233 65.8552 50.5546 65.8552Z" fill="#C6C485"/>
<path d="M50.1523 66.0711C56.0836 66.0711 60.892 61.2655 60.892 55.3375C60.892 49.4095 56.0836 44.6039 50.1523 44.6039C44.2209 44.6039 39.4126 49.4095 39.4126 55.3375C39.4126 61.2655 44.2209 66.0711 50.1523 66.0711Z" fill="#C6C286"/>
<path d="M49.7831 66.2862C55.7145 66.2862 60.5228 61.4806 60.5228 55.5526C60.5228 49.6246 55.7145 44.819 49.7831 44.819C43.8518 44.819 39.0435 49.6246 39.0435 55.5526C39.0435 61.4806 43.8518 66.2862 49.7831 66.2862Z" fill="#C7C187"/>
<path d="M49.414 66.4725C55.3454 66.4725 60.1537 61.6669 60.1537 55.7389C60.1537 49.8109 55.3454 45.0052 49.414 45.0052C43.4826 45.0052 38.6743 49.8109 38.6743 55.7389C38.6743 61.6669 43.4826 66.4725 49.414 66.4725Z" fill="#C7C087"/>
<path d="M49.0117 66.6892C54.943 66.6892 59.7513 61.8836 59.7513 55.9556C59.7513 50.0275 54.943 45.2219 49.0117 45.2219C43.0803 45.2219 38.272 50.0275 38.272 55.9556C38.272 61.8836 43.0803 66.6892 49.0117 66.6892Z" fill="#C7BF88"/>
<path d="M48.6411 66.9045C54.5724 66.9045 59.3807 62.0989 59.3807 56.1709C59.3807 50.2429 54.5724 45.4373 48.6411 45.4373C42.7097 45.4373 37.9014 50.2429 37.9014 56.1709C37.9014 62.0989 42.7097 66.9045 48.6411 66.9045Z" fill="#C8BE89"/>
<path d="M48.2719 67.0891C54.2033 67.0891 59.0116 62.2835 59.0116 56.3555C59.0116 50.4274 54.2033 45.6218 48.2719 45.6218C42.3405 45.6218 37.5322 50.4274 37.5322 56.3555C37.5322 62.2835 42.3405 67.0891 48.2719 67.0891Z" fill="#C8BD8A"/>
<path d="M47.8696 67.3056C53.8009 67.3056 58.6093 62.5 58.6093 56.572C58.6093 50.644 53.8009 45.8384 47.8696 45.8384C41.9382 45.8384 37.1299 50.644 37.1299 56.572C37.1299 62.5 41.9382 67.3056 47.8696 67.3056Z" fill="#C9BB8A"/>
<path d="M47.499 67.4911C53.4303 67.4911 58.2386 62.6855 58.2386 56.7574C58.2386 50.8294 53.4303 46.0238 47.499 46.0238C41.5676 46.0238 36.7593 50.8294 36.7593 56.7574C36.7593 62.6855 41.5676 67.4911 47.499 67.4911Z" fill="#C9BA8B"/>
<path d="M47.0976 67.7062C53.029 67.7062 57.8373 62.9005 57.8373 56.9725C57.8373 51.0445 53.029 46.2389 47.0976 46.2389C41.1662 46.2389 36.3579 51.0445 36.3579 56.9725C36.3579 62.9005 41.1662 67.7062 47.0976 67.7062Z" fill="#C9B98C"/>
<path d="M46.7289 67.9223C52.6603 67.9223 57.4686 63.1167 57.4686 57.1887C57.4686 51.2607 52.6603 46.4551 46.7289 46.4551C40.7976 46.4551 35.9893 51.2607 35.9893 57.1887C35.9893 63.1167 40.7976 67.9223 46.7289 67.9223Z" fill="#CAB88D"/>
<path d="M46.3579 68.1069C52.2892 68.1069 57.0975 63.3013 57.0975 57.3733C57.0975 51.4453 52.2892 46.6396 46.3579 46.6396C40.4265 46.6396 35.6182 51.4453 35.6182 57.3733C35.6182 63.3013 40.4265 68.1069 46.3579 68.1069Z" fill="#CAB78D"/>
<path d="M45.9555 68.3227C51.8869 68.3227 56.6952 63.5171 56.6952 57.5891C56.6952 51.6611 51.8869 46.8555 45.9555 46.8555C40.0241 46.8555 35.2158 51.6611 35.2158 57.5891C35.2158 63.5171 40.0241 68.3227 45.9555 68.3227Z" fill="#CAB68E"/>
<path d="M45.5869 68.5387C51.5182 68.5387 56.3265 63.7331 56.3265 57.805C56.3265 51.877 51.5182 47.0714 45.5869 47.0714C39.6555 47.0714 34.8472 51.877 34.8472 57.805C34.8472 63.7331 39.6555 68.5387 45.5869 68.5387Z" fill="#CBB58F"/>
<path d="M45.2158 68.7241C51.1471 68.7241 55.9554 63.9185 55.9554 57.9905C55.9554 52.0624 51.1471 47.2568 45.2158 47.2568C39.2844 47.2568 34.4761 52.0624 34.4761 57.9905C34.4761 63.9185 39.2844 68.7241 45.2158 68.7241Z" fill="#CBB390"/>
<path d="M44.8154 68.9394C50.7467 68.9394 55.5551 64.1338 55.5551 58.2058C55.5551 52.2778 50.7467 47.4722 44.8154 47.4722C38.884 47.4722 34.0757 52.2778 34.0757 58.2058C34.0757 64.1338 38.884 68.9394 44.8154 68.9394Z" fill="#CBB290"/>
<path d="M44.4448 69.1551C50.3761 69.1551 55.1845 64.3495 55.1845 58.4215C55.1845 52.4935 50.3761 47.6879 44.4448 47.6879C38.5134 47.6879 33.7051 52.4935 33.7051 58.4215C33.7051 64.3495 38.5134 69.1551 44.4448 69.1551Z" fill="#CCB191"/>
<path d="M44.0737 69.3405C50.005 69.3405 54.8134 64.5349 54.8134 58.6069C54.8134 52.6789 50.005 47.8733 44.0737 47.8733C38.1423 47.8733 33.334 52.6789 33.334 58.6069C33.334 64.5349 38.1423 69.3405 44.0737 69.3405Z" fill="#CCB092"/>
<path d="M43.6728 69.5564C49.6042 69.5564 54.4125 64.7508 54.4125 58.8227C54.4125 52.8947 49.6042 48.0891 43.6728 48.0891C37.7414 48.0891 32.9331 52.8947 32.9331 58.8227C32.9331 64.7508 37.7414 69.5564 43.6728 69.5564Z" fill="#CCAF93"/>
<path d="M43.3007 69.7723C49.2321 69.7723 54.0404 64.9667 54.0404 59.0387C54.0404 53.1107 49.2321 48.3051 43.3007 48.3051C37.3694 48.3051 32.561 53.1107 32.561 59.0387C32.561 64.9667 37.3694 69.7723 43.3007 69.7723Z" fill="#CDAE94"/>
<path d="M42.9311 69.958C48.8625 69.958 53.6708 65.1524 53.6708 59.2243C53.6708 53.2963 48.8625 48.4907 42.9311 48.4907C36.9997 48.4907 32.1914 53.2963 32.1914 59.2243C32.1914 65.1524 36.9997 69.958 42.9311 69.958Z" fill="#CDAD94"/>
<path d="M42.5312 70.1745C48.4626 70.1745 53.2709 65.3689 53.2709 59.4409C53.2709 53.5129 48.4626 48.7073 42.5312 48.7073C36.5998 48.7073 31.7915 53.5129 31.7915 59.4409C31.7915 65.3689 36.5998 70.1745 42.5312 70.1745Z" fill="#CDAB95"/>
<path d="M42.1601 70.3897C48.0915 70.3897 52.8998 65.5841 52.8998 59.6561C52.8998 53.7281 48.0915 48.9225 42.1601 48.9225C36.2287 48.9225 31.4204 53.7281 31.4204 59.6561C31.4204 65.5841 36.2287 70.3897 42.1601 70.3897Z" fill="#CEAA96"/>
<path d="M41.7895 70.575C47.7209 70.575 52.5292 65.7694 52.5292 59.8414C52.5292 53.9134 47.7209 49.1078 41.7895 49.1078C35.8581 49.1078 31.0498 53.9134 31.0498 59.8414C31.0498 65.7694 35.8581 70.575 41.7895 70.575Z" fill="#CEA997"/>
<path d="M41.3886 70.7904C47.32 70.7904 52.1283 65.9848 52.1283 60.0568C52.1283 54.1287 47.32 49.3231 41.3886 49.3231C35.4572 49.3231 30.6489 54.1287 30.6489 60.0568C30.6489 65.9848 35.4572 70.7904 41.3886 70.7904Z" fill="#CEA897"/>
<path d="M41.02 71.0064C46.9513 71.0064 51.7596 66.2008 51.7596 60.2728C51.7596 54.3448 46.9513 49.5392 41.02 49.5392C35.0886 49.5392 30.2803 54.3448 30.2803 60.2728C30.2803 66.2008 35.0886 71.0064 41.02 71.0064Z" fill="#CFA798"/>
<path d="M40.6171 71.1909C46.5485 71.1909 51.3568 66.3853 51.3568 60.4573C51.3568 54.5292 46.5485 49.7236 40.6171 49.7236C34.6858 49.7236 29.8774 54.5292 29.8774 60.4573C29.8774 66.3853 34.6858 71.1909 40.6171 71.1909Z" fill="#CFA699"/>
<path d="M40.2465 71.4083C46.1779 71.4083 50.9862 66.6027 50.9862 60.6747C50.9862 54.7467 46.1779 49.941 40.2465 49.941C34.3152 49.941 29.5068 54.7467 29.5068 60.6747C29.5068 66.6027 34.3152 71.4083 40.2465 71.4083Z" fill="#CFA59A"/>
<path d="M39.8769 71.5929C45.8083 71.5929 50.6166 66.7873 50.6166 60.8592C50.6166 54.9312 45.8083 50.1256 39.8769 50.1256C33.9455 50.1256 29.1372 54.9312 29.1372 60.8592C29.1372 66.7873 33.9455 71.5929 39.8769 71.5929Z" fill="#D0A39A"/>
<path d="M39.4745 71.8083C45.4059 71.8083 50.2142 67.0027 50.2142 61.0747C50.2142 55.1467 45.4059 50.3411 39.4745 50.3411C33.5432 50.3411 28.7349 55.1467 28.7349 61.0747C28.7349 67.0027 33.5432 71.8083 39.4745 71.8083Z" fill="#D0A29B"/>
<path d="M39.1059 72.024C45.0373 72.024 49.8456 67.2184 49.8456 61.2904C49.8456 55.3624 45.0373 50.5568 39.1059 50.5568C33.1745 50.5568 28.3662 55.3624 28.3662 61.2904C28.3662 67.2184 33.1745 72.024 39.1059 72.024Z" fill="#D1A19C"/>
<path d="M38.7358 72.2087C44.6671 72.2087 49.4755 67.4031 49.4755 61.4751C49.4755 55.5471 44.6671 50.7415 38.7358 50.7415C32.8044 50.7415 27.9961 55.5471 27.9961 61.4751C27.9961 67.4031 32.8044 72.2087 38.7358 72.2087Z" fill="#D1A09D"/>
<path d="M38.3344 72.4253C44.2658 72.4253 49.0741 67.6197 49.0741 61.6916C49.0741 55.7636 44.2658 50.958 38.3344 50.958C32.403 50.958 27.5947 55.7636 27.5947 61.6916C27.5947 67.6197 32.403 72.4253 38.3344 72.4253Z" fill="#D19F9D"/>
<path d="M37.9623 72.6413C43.8937 72.6413 48.702 67.8357 48.702 61.9077C48.702 55.9797 43.8937 51.1741 37.9623 51.1741C32.031 51.1741 27.2227 55.9797 27.2227 61.9077C27.2227 67.8357 32.031 72.6413 37.9623 72.6413Z" fill="#D29E9E"/>
<path d="M37.5927 72.8269C43.5241 72.8269 48.3324 68.0213 48.3324 62.0932C48.3324 56.1652 43.5241 51.3596 37.5927 51.3596C31.6613 51.3596 26.853 56.1652 26.853 62.0932C26.853 68.0213 31.6613 72.8269 37.5927 72.8269Z" fill="#D29C9F"/>
<path d="M37.1918 73.0427C43.1232 73.0427 47.9315 68.2371 47.9315 62.3091C47.9315 56.381 43.1232 51.5754 37.1918 51.5754C31.2605 51.5754 26.4521 56.381 26.4521 62.3091C26.4521 68.2371 31.2605 73.0427 37.1918 73.0427Z" fill="#D29BA0"/>
<path d="M36.8227 73.2586C42.7541 73.2586 47.5624 68.453 47.5624 62.525C47.5624 56.597 42.7541 51.7914 36.8227 51.7914C30.8913 51.7914 26.083 56.597 26.083 62.525C26.083 68.453 30.8913 73.2586 36.8227 73.2586Z" fill="#D39AA1"/>
<path d="M36.4506 73.4432C42.382 73.4432 47.1903 68.6376 47.1903 62.7096C47.1903 56.7816 42.382 51.976 36.4506 51.976C30.5193 51.976 25.7109 56.7816 25.7109 62.7096C25.7109 68.6376 30.5193 73.4432 36.4506 73.4432Z" fill="#D399A1"/>
<path d="M36.0502 73.6594C41.9816 73.6594 46.7899 68.8538 46.7899 62.9258C46.7899 56.9977 41.9816 52.1921 36.0502 52.1921C30.1189 52.1921 25.3105 56.9977 25.3105 62.9258C25.3105 68.8538 30.1189 73.6594 36.0502 73.6594Z" fill="#D398A2"/>
<path d="M35.6796 73.8745C41.611 73.8745 46.4193 69.0689 46.4193 63.1409C46.4193 57.2128 41.611 52.4072 35.6796 52.4072C29.7483 52.4072 24.9399 57.2128 24.9399 63.1409C24.9399 69.0689 29.7483 73.8745 35.6796 73.8745Z" fill="#D497A3"/>
<path d="M35.308 74.0605C41.2394 74.0605 46.0477 69.2549 46.0477 63.3269C46.0477 57.3989 41.2394 52.5933 35.308 52.5933C29.3767 52.5933 24.5684 57.3989 24.5684 63.3269C24.5684 69.2549 29.3767 74.0605 35.308 74.0605Z" fill="#D496A4"/>
<path d="M34.9077 74.2766C40.839 74.2766 45.6473 69.471 45.6473 63.543C45.6473 57.6149 40.839 52.8093 34.9077 52.8093C28.9763 52.8093 24.168 57.6149 24.168 63.543C24.168 69.471 28.9763 74.2766 34.9077 74.2766Z" fill="#D494A4"/>
<path d="M34.537 74.4923C40.4684 74.4923 45.2767 69.6867 45.2767 63.7587C45.2767 57.8306 40.4684 53.025 34.537 53.025C28.6057 53.025 23.7974 57.8306 23.7974 63.7587C23.7974 69.6867 28.6057 74.4923 34.537 74.4923Z" fill="#D593A5"/>
<path d="M34.1362 74.6764C40.0675 74.6764 44.8759 69.8708 44.8759 63.9427C44.8759 58.0147 40.0675 53.2091 34.1362 53.2091C28.2048 53.2091 23.3965 58.0147 23.3965 63.9427C23.3965 69.8708 28.2048 74.6764 34.1362 74.6764Z" fill="#D592A6"/>
<path d="M33.7656 74.8924C39.6969 74.8924 44.5053 70.0868 44.5053 64.1588C44.5053 58.2308 39.6969 53.4252 33.7656 53.4252C27.8342 53.4252 23.0259 58.2308 23.0259 64.1588C23.0259 70.0868 27.8342 74.8924 33.7656 74.8924Z" fill="#D591A7"/>
<path d="M33.3954 75.0785C39.3268 75.0785 44.1351 70.2729 44.1351 64.3448C44.1351 58.4168 39.3268 53.6112 33.3954 53.6112C27.4641 53.6112 22.6558 58.4168 22.6558 64.3448C22.6558 70.2729 27.4641 75.0785 33.3954 75.0785Z" fill="#D690A7"/>
<path d="M32.9941 75.2934C38.9254 75.2934 43.7338 70.4878 43.7338 64.5598C43.7338 58.6318 38.9254 53.8262 32.9941 53.8262C27.0627 53.8262 22.2544 58.6318 22.2544 64.5598C22.2544 70.4878 27.0627 75.2934 32.9941 75.2934Z" fill="#D68FA8"/>
<path d="M32.6249 75.5097C38.5563 75.5097 43.3646 70.7041 43.3646 64.7761C43.3646 58.8481 38.5563 54.0425 32.6249 54.0425C26.6936 54.0425 21.8853 58.8481 21.8853 64.7761C21.8853 70.7041 26.6936 75.5097 32.6249 75.5097Z" fill="#D68EA9"/>
<path d="M32.2538 75.6943C38.1852 75.6943 42.9935 70.8887 42.9935 64.9607C42.9935 59.0327 38.1852 54.2271 32.2538 54.2271C26.3225 54.2271 21.5142 59.0327 21.5142 64.9607C21.5142 70.8887 26.3225 75.6943 32.2538 75.6943Z" fill="#D78CAA"/>
<path d="M31.8515 75.91C37.7829 75.91 42.5912 71.1044 42.5912 65.1764C42.5912 59.2484 37.7829 54.4427 31.8515 54.4427C25.9201 54.4427 21.1118 59.2484 21.1118 65.1764C21.1118 71.1044 25.9201 75.91 31.8515 75.91Z" fill="#D78BAB"/>
<path d="M31.4829 76.1261C37.4142 76.1261 42.2225 71.3205 42.2225 65.3924C42.2225 59.4644 37.4142 54.6588 31.4829 54.6588C25.5515 54.6588 20.7432 59.4644 20.7432 65.3924C20.7432 71.3205 25.5515 76.1261 31.4829 76.1261Z" fill="#D88AAB"/>
<path d="M31.1127 76.3121C37.0441 76.3121 41.8524 71.5065 41.8524 65.5785C41.8524 59.6505 37.0441 54.8448 31.1127 54.8448C25.1814 54.8448 20.373 59.6505 20.373 65.5785C20.373 71.5065 25.1814 76.3121 31.1127 76.3121Z" fill="#D889AC"/>
<path d="M30.7099 76.5277C36.6413 76.5277 41.4496 71.7221 41.4496 65.7941C41.4496 59.866 36.6413 55.0604 30.7099 55.0604C24.7785 55.0604 19.9702 59.866 19.9702 65.7941C19.9702 71.7221 24.7785 76.5277 30.7099 76.5277Z" fill="#D888AD"/>
<path d="M30.3412 76.7434C36.2726 76.7434 41.0809 71.9378 41.0809 66.0098C41.0809 60.0817 36.2726 55.2761 30.3412 55.2761C24.4099 55.2761 19.6016 60.0817 19.6016 66.0098C19.6016 71.9378 24.4099 76.7434 30.3412 76.7434Z" fill="#D987AE"/>
<path d="M29.9697 76.9288C35.901 76.9288 40.7094 72.1232 40.7094 66.1952C40.7094 60.2672 35.901 55.4615 29.9697 55.4615C24.0383 55.4615 19.23 60.2672 19.23 66.1952C19.23 72.1232 24.0383 76.9288 29.9697 76.9288Z" fill="#D985AE"/>
<path d="M29.5688 77.1446C35.5002 77.1446 40.3085 72.339 40.3085 66.411C40.3085 60.483 35.5002 55.6774 29.5688 55.6774C23.6374 55.6774 18.8291 60.483 18.8291 66.411C18.8291 72.339 23.6374 77.1446 29.5688 77.1446Z" fill="#D984AF"/>
<path d="M29.1987 77.3606C35.13 77.3606 39.9384 72.555 39.9384 66.6269C39.9384 60.6989 35.13 55.8933 29.1987 55.8933C23.2673 55.8933 18.459 60.6989 18.459 66.6269C18.459 72.555 23.2673 77.3606 29.1987 77.3606Z" fill="#DA83B0"/>
<path d="M28.8276 77.5444C34.7589 77.5444 39.5673 72.7388 39.5673 66.8108C39.5673 60.8828 34.7589 56.0771 28.8276 56.0771C22.8962 56.0771 18.0879 60.8828 18.0879 66.8108C18.0879 72.7388 22.8962 77.5444 28.8276 77.5444Z" fill="#DA82B1"/>
<path d="M28.4272 77.7621C34.3586 77.7621 39.1669 72.9564 39.1669 67.0284C39.1669 61.1004 34.3586 56.2948 28.4272 56.2948C22.4958 56.2948 17.6875 61.1004 17.6875 67.0284C17.6875 72.9564 22.4958 77.7621 28.4272 77.7621Z" fill="#DA81B1"/>
<path d="M28.0566 77.977C33.9879 77.977 38.7963 73.1714 38.7963 67.2434C38.7963 61.3154 33.9879 56.5098 28.0566 56.5098C22.1252 56.5098 17.3169 61.3154 17.3169 67.2434C17.3169 73.1714 22.1252 77.977 28.0566 77.977Z" fill="#DB80B2"/>
<path d="M27.6562 78.1624C33.5876 78.1624 38.3959 73.3568 38.3959 67.4288C38.3959 61.5008 33.5876 56.6952 27.6562 56.6952C21.7248 56.6952 16.9165 61.5008 16.9165 67.4288C16.9165 73.3568 21.7248 78.1624 27.6562 78.1624Z" fill="#DB7FB3"/>
<path d="M27.2846 78.3779C33.216 78.3779 38.0243 73.5723 38.0243 67.6443C38.0243 61.7163 33.216 56.9106 27.2846 56.9106C21.3532 56.9106 16.5449 61.7163 16.5449 67.6443C16.5449 73.5723 21.3532 78.3779 27.2846 78.3779Z" fill="#DB7DB4"/>
<path d="M26.9145 78.5937C32.8459 78.5937 37.6542 73.7881 37.6542 67.8601C37.6542 61.9321 32.8459 57.1265 26.9145 57.1265C20.9831 57.1265 16.1748 61.9321 16.1748 67.8601C16.1748 73.7881 20.9831 78.5937 26.9145 78.5937Z" fill="#DC7CB4"/>
<path d="M26.5131 78.778C32.4445 78.778 37.2528 73.9724 37.2528 68.0444C37.2528 62.1164 32.4445 57.3108 26.5131 57.3108C20.5818 57.3108 15.7734 62.1164 15.7734 68.0444C15.7734 73.9724 20.5818 78.778 26.5131 78.778Z" fill="#DC7BB5"/>
<path d="M26.1425 78.995C32.0739 78.995 36.8822 74.1894 36.8822 68.2613C36.8822 62.3333 32.0739 57.5277 26.1425 57.5277C20.2112 57.5277 15.4028 62.3333 15.4028 68.2613C15.4028 74.1894 20.2112 78.995 26.1425 78.995Z" fill="#DC7AB6"/>
<path d="M25.7724 79.1805C31.7038 79.1805 36.5121 74.3749 36.5121 68.4469C36.5121 62.5189 31.7038 57.7133 25.7724 57.7133C19.841 57.7133 15.0327 62.5189 15.0327 68.4469C15.0327 74.3749 19.841 79.1805 25.7724 79.1805Z" fill="#DD79B7"/>
<path d="M25.371 79.3954C31.3024 79.3954 36.1107 74.5897 36.1107 68.6617C36.1107 62.7337 31.3024 57.9281 25.371 57.9281C19.4397 57.9281 14.6313 62.7337 14.6313 68.6617C14.6313 74.5897 19.4397 79.3954 25.371 79.3954Z" fill="#DD78B8"/>
<path d="M25.0019 79.6124C30.9333 79.6124 35.7416 74.8068 35.7416 68.8788C35.7416 62.9508 30.9333 58.1451 25.0019 58.1451C19.0705 58.1451 14.2622 62.9508 14.2622 68.8788C14.2622 74.8068 19.0705 79.6124 25.0019 79.6124Z" fill="#DD77B8"/>
<path d="M24.6318 79.7977C30.5631 79.7977 35.3715 74.9921 35.3715 69.0641C35.3715 63.1361 30.5631 58.3304 24.6318 58.3304C18.7004 58.3304 13.8921 63.1361 13.8921 69.0641C13.8921 74.9921 18.7004 79.7977 24.6318 79.7977Z" fill="#DE75B9"/>
<path d="M24.2304 80.0135C30.1618 80.0135 34.9701 75.2079 34.9701 69.2799C34.9701 63.3519 30.1618 58.5463 24.2304 58.5463C18.299 58.5463 13.4907 63.3519 13.4907 69.2799C13.4907 75.2079 18.299 80.0135 24.2304 80.0135Z" fill="#DE74BA"/>
<path d="M23.8603 80.2289C29.7917 80.2289 34.6 75.4232 34.6 69.4952C34.6 63.5672 29.7917 58.7616 23.8603 58.7616C17.9289 58.7616 13.1206 63.5672 13.1206 69.4952C13.1206 75.4232 17.9289 80.2289 23.8603 80.2289Z" fill="#DF73BB"/>
<path d="M23.4897 80.4142C29.4211 80.4142 34.2294 75.6085 34.2294 69.6805C34.2294 63.7525 29.4211 58.9469 23.4897 58.9469C17.5583 58.9469 12.75 63.7525 12.75 69.6805C12.75 75.6085 17.5583 80.4142 23.4897 80.4142Z" fill="#DF72BB"/>
<path d="M23.0883 80.6302C29.0197 80.6302 33.828 75.8246 33.828 69.8966C33.828 63.9686 29.0197 59.163 23.0883 59.163C17.157 59.163 12.3486 63.9686 12.3486 69.8966C12.3486 75.8246 17.157 80.6302 23.0883 80.6302Z" fill="#DF71BC"/>
<path d="M22.7177 80.846C28.6491 80.846 33.4574 76.0404 33.4574 70.1124C33.4574 64.1844 28.6491 59.3788 22.7177 59.3788C16.7863 59.3788 11.978 64.1844 11.978 70.1124C11.978 76.0404 16.7863 80.846 22.7177 80.846Z" fill="#E070BD"/>
<path d="M22.3486 81.0305C28.2799 81.0305 33.0883 76.2249 33.0883 70.2969C33.0883 64.3688 28.2799 59.5632 22.3486 59.5632C16.4172 59.5632 11.6089 64.3688 11.6089 70.2969C11.6089 76.2249 16.4172 81.0305 22.3486 81.0305Z" fill="#E06EBE"/>
<path d="M21.9462 81.2468C27.8776 81.2468 32.6859 76.4412 32.6859 70.5132C32.6859 64.5851 27.8776 59.7795 21.9462 59.7795C16.0149 59.7795 11.2065 64.5851 11.2065 70.5132C11.2065 76.4412 16.0149 81.2468 21.9462 81.2468Z" fill="#E06DBE"/>
<path d="M21.5756 81.4618C27.507 81.4618 32.3153 76.6562 32.3153 70.7281C32.3153 64.8001 27.507 59.9945 21.5756 59.9945C15.6443 59.9945 10.8359 64.8001 10.8359 70.7281C10.8359 76.6562 15.6443 81.4618 21.5756 81.4618Z" fill="#E16CBF"/>
<path d="M21.1752 81.6473C27.1066 81.6473 31.9149 76.8417 31.9149 70.9137C31.9149 64.9857 27.1066 60.1801 21.1752 60.1801C15.2439 60.1801 10.4355 64.9857 10.4355 70.9137C10.4355 76.8417 15.2439 81.6473 21.1752 81.6473Z" fill="#E16BC0"/>
</g>
<path d="M285.888 48.5492H291.826C295.264 48.5492 298.057 51.3354 298.057 54.7769C298.057 58.2128 295.269 61.0045 291.826 61.0045H285.888C282.451 61.0045 279.658 58.2183 279.658 54.7769C279.658 51.3409 282.446 48.5492 285.888 48.5492Z" fill="#B7F564"/>
<path d="M125.961 63.5866H115.484L101.603 32.1289H112.719L121.78 55.9383H119.852L128.98 32.1289H139.842L125.961 63.5866Z" fill="#F6F6F2"/>
<path d="M148.192 28.4885C146.479 28.4885 145.019 27.9434 143.824 26.8531C142.623 25.7629 142.022 24.4193 142.022 22.8115C142.022 21.2036 142.623 19.7995 143.824 18.7092C145.025 17.619 146.479 17.0739 148.192 17.0739C149.905 17.0739 151.414 17.619 152.593 18.7092C153.772 19.7995 154.361 21.1651 154.361 22.8115C154.361 24.4579 153.772 25.7629 152.593 26.8531C151.414 27.9434 149.949 28.4885 148.192 28.4885ZM153.656 63.5804H142.794V32.1227H153.656V63.5804Z" fill="#F6F6F2"/>
<path d="M194.976 63.5867H184.179V56.8634L184.113 56.1861V47.6128C184.113 45.9278 183.794 44.4962 183.149 43.3233C182.505 42.1505 181.618 41.2474 180.483 40.6087C179.348 39.97 178.048 39.6506 176.594 39.6506C175.052 39.6506 173.713 40.003 172.578 40.6968C171.444 41.3961 170.573 42.3597 169.973 43.5931C169.372 44.8266 169.075 46.2472 169.075 47.8495C169.075 49.4519 169.405 50.823 170.072 52.0729C170.739 53.3284 171.669 54.303 172.87 55.0023C174.071 55.7016 175.459 56.0485 177.046 56.0485C178.285 56.0485 179.425 55.8337 180.45 55.3987C181.475 54.9637 182.345 54.3525 183.055 53.5486C183.761 52.7447 184.223 51.8141 184.438 50.7404L186.878 51.726C186.878 54.0717 186.383 56.2192 185.402 58.1739C184.416 60.1287 182.967 61.6815 181.061 62.8323C179.156 63.9831 176.809 64.5613 174.027 64.5613C171.245 64.5613 168.491 63.862 166.029 62.4634C163.567 61.0648 161.594 59.1155 160.118 56.6046C158.642 54.0992 157.904 51.1754 157.904 47.844C157.904 44.5127 158.642 41.5448 160.118 39.0559C161.594 36.567 163.567 34.6233 166.029 33.2247C168.491 31.8261 171.179 31.1268 174.093 31.1268C176.666 31.1268 178.836 31.6003 180.615 32.5474C182.394 33.4945 183.794 34.7885 184.824 36.4349C185.854 38.0813 186.471 39.9479 186.686 42.0459H184.113V19.1615H194.976V63.5702V63.5867Z" fill="#F6F6F2"/>
<path d="M225.312 32.1289H236.174L221.263 65.9874C219.847 69.1976 218.018 71.5874 215.771 73.1732C213.524 74.7535 210.703 75.5464 207.321 75.5464H202.435V67.1603H206.55C207.789 67.1603 208.852 66.9125 209.734 66.4224C210.61 65.9268 211.287 65.1064 211.755 63.9556L211.882 63.5866L197.935 32.1289H209.051L218.757 57.6012H215.545L225.312 32.1289Z" fill="#F6F6F2"/>
<path d="M254.165 64.5721C250.48 64.5721 247.235 63.8618 244.431 62.4466C241.628 61.026 239.441 59.0547 237.876 56.5273C236.312 53.9999 235.53 51.1091 235.53 47.8603C235.53 44.6116 236.312 41.6712 237.876 39.1658C239.441 36.6604 241.622 34.6946 244.431 33.274C247.235 31.8534 250.485 31.1486 254.165 31.1486C257.845 31.1486 261.095 31.8589 263.904 33.274C266.708 34.6946 268.895 36.6549 270.459 39.1658C272.023 41.6767 272.806 44.573 272.806 47.8603C272.806 51.1476 272.023 53.9999 270.459 56.5273C268.895 59.0547 266.708 61.0315 263.904 62.4466C261.095 63.8673 257.85 64.5721 254.165 64.5721ZM254.165 56.0593C255.663 56.0593 256.969 55.7124 258.087 55.0131C259.2 54.3138 260.07 53.3501 260.687 52.1167C261.309 50.8833 261.618 49.4627 261.618 47.8603C261.618 46.258 261.304 44.8373 260.687 43.6039C260.065 42.3705 259.2 41.4069 258.087 40.7076C256.974 40.0083 255.663 39.6614 254.165 39.6614C252.667 39.6614 251.411 40.0138 250.276 40.7076C249.141 41.4069 248.26 42.3705 247.643 43.6039C247.02 44.8373 246.712 46.258 246.712 47.8603C246.712 49.4627 247.02 50.8833 247.643 52.1167C248.265 53.3501 249.141 54.3193 250.276 55.0131C251.411 55.7124 252.705 56.0593 254.165 56.0593Z" fill="#F6F6F2"/>
<path d="M318.058 64.5722C315.53 64.5722 313.294 64.1317 311.344 63.2452C309.394 62.3642 307.884 61.1362 306.81 59.5724C305.736 58.0086 305.202 56.1805 305.202 54.0826C305.202 51.9847 305.863 50.1125 307.196 48.5928C308.523 47.073 310.429 45.8892 312.914 45.0467C315.398 44.2042 318.334 43.7802 321.716 43.7802H328.657V50.074H322.361C320.433 50.074 318.923 50.4044 317.833 51.0596C316.742 51.7204 316.191 52.5794 316.191 53.6476C316.191 54.7158 316.632 55.4977 317.508 56.1145C318.383 56.7312 319.507 57.0395 320.879 57.0395C322.25 57.0395 323.429 56.7532 324.542 56.175C325.655 55.6024 326.564 54.8205 327.274 53.8293C327.979 52.8437 328.398 51.7314 328.53 50.498L331.295 51.6103C331.295 54.2038 330.75 56.4724 329.654 58.4271C328.563 60.3819 327.021 61.8906 325.027 62.9588C323.033 64.0271 320.708 64.5612 318.053 64.5612L318.058 64.5722ZM338.043 63.5866H328.337V57.1717L327.759 56.6155V44.7714C327.759 42.8387 327.103 41.3795 325.798 40.3938C324.492 39.4082 322.702 38.9126 320.433 38.9126C318.719 38.9126 317.089 39.199 315.547 39.7771C314.004 40.3553 312.655 41.1757 311.498 42.244L306.358 36.0769C308.072 34.5571 310.225 33.3512 312.814 32.4702C315.409 31.5837 318.136 31.1432 321.011 31.1432C324.393 31.1432 327.362 31.6553 329.913 32.685C332.463 33.7147 334.452 35.2234 335.889 37.2167C337.322 39.21 338.043 41.6658 338.043 44.5842V63.5811V63.5866Z" fill="#F6F6F2"/>
<path d="M348.261 28.4885C346.548 28.4885 345.088 27.9434 343.893 26.8531C342.692 25.7629 342.092 24.4193 342.092 22.8115C342.092 21.2036 342.692 19.7995 343.893 18.7092C345.094 17.619 346.548 17.0739 348.261 17.0739C349.974 17.0739 351.484 17.619 352.663 18.7092C353.841 19.7995 354.431 21.1651 354.431 22.8115C354.431 24.4579 353.841 25.7629 352.663 26.8531C351.484 27.9434 350.018 28.4885 348.261 28.4885ZM353.726 63.5804H342.863V32.1227H353.726V63.5804Z" fill="#F6F6F2"/>
<defs>
<clipPath id="clip0_1602_22466">
<rect width="67.2465" height="70.7247" fill="white" transform="translate(10.4355 10.9536)"/>
</clipPath>
</defs>
</svg>
